<svg width="922" height="573" viewBox="0 0 922 573" fill="none" xmlns="http://www.w3.org/2000/svg">
<g clip-path="url(#clip0_36_383)">
<path d="M235.59 453.897L188.96 466.172C160.569 467.406 136.826 462.671 117.178 454.841C120.358 451.079 124.41 442.61 117.977 438.644C109.481 433.385 101.814 441.912 99.3303 446.357C52.7293 420.311 35.2739 378.068 35.2739 378.068C47.5886 372.359 59.482 368.887 70.8673 367.217C73.3505 380.363 86.9867 399.727 97.5732 389.341C104.137 382.891 95.5111 370.529 88.6712 365.982C166.277 366.766 233.339 453.897 235.59 453.897Z" fill="#324D8C"/>
<path d="M81.7588 401.427C81.7588 401.427 126.37 425.12 182.193 439.777Z" fill="#324D8C"/>
<path d="M81.7588 401.427C81.7588 401.427 126.37 425.12 182.193 439.777" stroke="white" stroke-width="3" stroke-miterlimit="10" stroke-linecap="round"/>
<path d="M277.791 460.332L232.453 458.996C200.795 439.922 174.728 411.944 159.074 389.341C167.38 390.576 178.257 381.961 174.147 373.027C168.716 361.217 154.688 366.2 149.576 373.086C117.788 311.348 129.231 253.024 129.231 253.024C146.672 255.696 162.051 260.476 175.6 266.838C164.708 284.169 171.679 304.52 189.062 302.53C199.067 301.382 199.939 288.134 195.771 278.3C279.272 334.968 275.337 458.705 277.791 460.332Z" fill="#324D8C"/>
<path d="M162.806 311.769C162.806 311.769 194.13 369.512 244.085 425.526" stroke="white" stroke-width="3" stroke-miterlimit="10" stroke-linecap="round"/>
<path d="M306.679 160.494C310.989 155.881 310.744 148.647 306.132 144.336C301.521 140.024 294.289 140.269 289.979 144.882C285.669 149.495 285.914 156.729 290.525 161.041C295.137 165.352 302.369 165.107 306.679 160.494Z" stroke="white" stroke-width="3" stroke-miterlimit="10" stroke-linecap="round"/>
<path d="M837.159 331.199C838.605 325.053 834.796 318.898 828.652 317.452C822.508 316.006 816.355 319.816 814.91 325.962C813.464 332.108 817.273 338.263 823.417 339.709C829.561 341.155 835.714 337.344 837.159 331.199Z" stroke="white" stroke-width="3" stroke-miterlimit="10" stroke-linecap="round"/>
<path d="M498.089 189.179V205.754" stroke="white" stroke-width="3" stroke-miterlimit="10" stroke-linecap="round"/>
<path d="M506.381 197.459H489.797" stroke="white" stroke-width="3" stroke-miterlimit="10" stroke-linecap="round"/>
<path d="M73.4811 308.82V325.409" stroke="white" stroke-width="3" stroke-miterlimit="10" stroke-linecap="round"/>
<path d="M81.7587 317.115H65.1891" stroke="white" stroke-width="3" stroke-miterlimit="10" stroke-linecap="round"/>
<path d="M144.987 243.204H199.837C223.087 243.204 242.546 225.583 244.855 202.442C247.512 175.8 226.601 152.674 199.837 152.674H144.987C113.402 152.674 91.5465 184.211 102.612 213.802C109.22 231.495 126.109 243.204 144.987 243.204Z" fill="#324D8C" fill-opacity="0.83"/>
<path d="M230.594 218.276L268.308 216.78L244.085 195.237C244.1 195.251 230.914 217.826 230.594 218.276Z" fill="#324D8C" fill-opacity="0.83"/>
<path d="M213.734 182.555H128.548" stroke="white" stroke-width="3" stroke-miterlimit="10" stroke-linecap="round"/>
<path d="M166.494 197.939H130.015" stroke="white" stroke-width="3" stroke-miterlimit="10" stroke-linecap="round"/>
<path d="M210.961 213.337H130.015" stroke="white" stroke-width="3" stroke-miterlimit="10" stroke-linecap="round"/>
<path d="M868.414 277.719H803.501C775.996 277.719 752.964 256.873 750.234 229.49C747.083 197.968 771.828 170.6 803.501 170.6H868.414C905.779 170.6 931.657 207.919 918.558 242.928C910.716 263.86 890.734 277.719 868.414 277.719Z" fill="#324D8C" fill-opacity="0.83"/>
<path d="M767.094 248.23L722.468 246.458L751.12 220.963C751.12 220.963 766.716 247.692 767.094 248.23Z" fill="#324D8C" fill-opacity="0.83"/>
<path d="M787.062 205.957H887.844" stroke="white" stroke-width="3" stroke-miterlimit="10" stroke-linecap="round"/>
<path d="M842.942 224.159H886.131" stroke="white" stroke-width="3" stroke-miterlimit="10" stroke-linecap="round"/>
<path d="M790.329 242.361H886.131" stroke="white" stroke-width="3" stroke-miterlimit="10" stroke-linecap="round"/>
<path d="M525.899 268.945L549.047 237.698C550.208 236.129 549.206 233.907 547.261 233.747C539.535 233.093 526.93 234.618 524.098 235.998C520.293 237.858 505.684 247.402 505.684 247.402L504.566 239.717C504.275 237.771 502.518 236.376 500.558 236.55C497.828 236.797 495.562 238.744 494.909 241.417L490.451 259.735L525.899 268.945Z" fill="#FBAF7B"/>
<path d="M409.505 226.266C393.952 193.595 351.141 209.734 351.141 209.734C351.141 209.734 335.036 196.341 305.775 231.437C279.809 262.567 258.012 274.334 268.323 285.403C273.841 291.33 282.467 289.921 282.467 289.921C282.467 289.921 248.529 297.954 254.701 322.751C259.566 342.275 280.231 349.131 292.342 347.141L292.734 343.814C293.271 344.018 293.809 344.221 294.36 344.396C423.374 385.898 427.846 264.805 409.505 226.266Z" fill="#373B54"/>
<path d="M363.537 278.113L331.932 280.408L336.492 343.246L368.096 340.951L363.537 278.113Z" fill="#FBAF7B"/>
<path d="M331.914 280.406L333.541 302.821C342.748 310.81 356.631 316.17 366.506 319.25L363.717 280.813C362.89 279.941 362.062 279.099 361.19 278.285L331.914 280.406Z" fill="#FB8862"/>
<path d="M391.193 224.929C391.193 224.929 411.219 274.712 381.783 305.13C377.47 309.59 371.225 311.609 365.082 310.81C355.178 309.532 340.555 305.697 336.997 294.264C331.479 276.586 324.16 234.023 340.889 225.888C357.604 217.753 391.193 224.929 391.193 224.929Z" fill="#FBAF7B"/>
<path d="M343.75 265.313C343.75 265.313 323.651 248.971 315.548 262.509C309.158 273.186 330.796 293.582 338.028 281.888C345.245 270.194 343.75 265.313 343.75 265.313Z" fill="#FBAF7B"/>
<path d="M397.452 253.372C397.452 253.372 397.045 236.129 389.813 240.095C382.581 244.061 375.916 252.573 357.967 239.267C344.345 229.156 336.808 267.448 336.808 267.448C336.808 267.448 330.23 253.401 318.264 259.328C318.264 259.328 327.775 216.954 343.75 215.153C359.738 213.352 395.448 216.983 398.004 225.612C400.574 234.226 397.452 253.372 397.452 253.372Z" fill="#373B54"/>
<path d="M384.484 269.816C384.658 272.213 385.718 274.087 386.851 274C387.984 273.913 388.753 271.908 388.579 269.511C388.405 267.114 387.345 265.24 386.212 265.328C385.079 265.415 384.31 267.434 384.484 269.816Z" fill="#373B54"/>
<path d="M358.765 268.843C358.94 271.24 360 273.114 361.132 273.027C362.265 272.939 363.035 270.935 362.861 268.538C362.686 266.141 361.626 264.267 360.494 264.354C359.361 264.441 358.591 266.446 358.765 268.843Z" fill="#373B54"/>
<path d="M380.534 285.243C379.895 285.127 358.62 282.236 358.62 282.236C358.62 282.236 366.447 311.449 379.895 285.127L380.534 285.243Z" fill="white"/>
<path d="M388.259 363.251L387.33 380.625L385.384 417.406L383.598 451.224L382.654 469.092H242.822C242.822 469.092 245.625 462.075 249.981 451.224C264.59 414.966 296.757 335.752 300.794 331.583C304.627 327.588 309.754 325.119 315.272 324.596L334.978 322.766L335.254 322.736C358.199 348.027 366.68 324.683 366.854 324.189L376.351 336.609C380.418 341.33 386.662 353.271 387.969 360.752C388.172 361.653 388.259 362.496 388.259 363.251Z" fill="#D64D8B"/>
<path d="M490.959 257.687L443.182 310.985L366.869 324.189L374.565 399.408L468.522 363.048L527.801 264.863L490.959 257.687Z" fill="#D64D8B"/>
<path d="M333.817 278.997C333.817 278.997 328.952 277.385 329.809 274.508C330.665 271.632 334.209 270.978 334.209 270.978C334.209 270.978 329.925 261.144 323.724 264.543C317.523 267.942 324.159 279.273 333.817 278.997Z" fill="#FB8862"/>
<path d="M193.97 438.615L197.296 451.224H110.701L146.512 438.615H193.97Z" fill="#FBAF7B"/>
<path d="M265.926 421.546L195.698 445.181L146.512 438.615L303.669 329.041" fill="#D64D8B"/>
<path d="M298.325 410.259L261.976 423.841" stroke="#B34074" stroke-width="3" stroke-miterlimit="10" stroke-linecap="round"/>
<path d="M360.552 241.068C360.493 241.039 378.515 257.919 383.162 254.796C385.631 253.14 384.28 247.794 384.28 247.794C384.28 247.794 392.907 261.289 402.23 257.149C413.891 251.963 415.343 223.331 395.593 222.605C375.829 221.864 360.552 241.068 360.552 241.068Z" fill="#373B54"/>
<path d="M808.961 79.3584C808.961 94.219 802.905 107.656 793.132 117.331C783.46 126.933 770.158 132.86 755.447 132.86C725.91 132.86 701.963 108.92 701.963 79.3584C701.963 49.7968 725.924 25.8425 755.447 25.8425C785 25.828 808.961 49.7968 808.961 79.3584Z" fill="#FFDF4F"/>
<path d="M808.961 79.3586H755.462V25.8282C785 25.8282 808.961 49.797 808.961 79.3586Z" fill="#D64D8B"/>
<path d="M808.961 79.3586C808.961 94.2192 802.905 107.656 793.132 117.331L755.448 79.3586H808.961Z" fill="#C7C7C7"/>
<path d="M405.294 79.3586H380.534V152.689H405.294V79.3586Z" fill="#C7C7C7"/>
<path d="M441.933 42.9405H417.173V152.689H441.933V42.9405Z" fill="#D64D8B"/>
<path d="M368.771 104.068H344.011V152.689H368.771V104.068Z" fill="#FFDF4F"/>
<path d="M603.446 107.119H538.547C511.043 107.119 488.011 86.2732 485.281 58.8907C482.13 27.3535 506.875 0 538.547 0H603.446C640.811 0 666.689 37.3187 653.59 72.3277C645.763 93.246 625.781 107.119 603.446 107.119Z" fill="#324D8C" fill-opacity="0.83"/>
<path d="M560.65 92.9264L554.972 137.247L532.1 106.465C532.1 106.465 560.069 93.2605 560.65 92.9264Z" fill="#324D8C" fill-opacity="0.83"/>
<path d="M564.643 36.7958H620.713" stroke="white" stroke-width="3" stroke-miterlimit="10" stroke-linecap="round"/>
<path d="M566.037 55.0121H618.985" stroke="white" stroke-width="3" stroke-miterlimit="10" stroke-linecap="round"/>
<path d="M523.198 73.2138H618.985" stroke="white" stroke-width="3" stroke-miterlimit="10" stroke-linecap="round"/>
<path d="M537.357 63.1615C545.569 63.1615 552.227 56.5016 552.227 48.2863C552.227 40.0709 545.569 33.4111 537.357 33.4111C529.144 33.4111 522.486 40.0709 522.486 48.2863C522.486 56.5016 529.144 63.1615 537.357 63.1615Z" fill="white"/>
<path d="M393.458 451.224H358.954L353.9 415.169L353 408.647L350.952 394.062H401.46L393.458 451.224Z" fill="#C7C7C7"/>
<path d="M401.881 384.358L350.183 380.305L345.884 394.062H405.294L401.881 384.358Z" fill="#373B54"/>
<path d="M376.206 431.874C382.149 431.874 386.967 427.055 386.967 421.11C386.967 415.165 382.149 410.346 376.206 410.346C370.263 410.346 365.445 415.165 365.445 421.11C365.445 427.055 370.263 431.874 376.206 431.874Z" fill="#FFDF4F"/>
<path d="M665.324 252.399C665.324 252.399 693.381 232.425 692.364 195.397C691.536 165.472 667.11 179.519 667.11 179.519L665.324 252.399Z" fill="#373B54"/>
<path d="M662.973 232.727L631.827 238.568L643.435 300.493L674.58 294.651L662.973 232.727Z" fill="#FBAF7B"/>
<path d="M594.66 230.885C594.66 230.885 568.651 213.773 572.108 191.387C574.431 176.411 589.316 186.782 589.316 186.782C589.316 186.782 599.293 144.641 640.666 144.655C659.501 144.655 653.184 163.264 653.184 163.264C653.184 163.264 671.496 150.335 677.697 168.944C689.198 203.401 665.469 246.138 665.469 246.138L594.66 230.885Z" fill="#373B54"/>
<path d="M662.957 232.715L667.096 254.796C660.227 264.877 648.174 273.593 639.402 279.084L632.301 241.213C632.882 240.153 633.463 239.136 634.102 238.119L662.957 232.715Z" fill="#FB8862"/>
<path d="M591.494 194.176C591.494 194.176 585.787 243.262 618.229 272.111C620.437 274.073 623.501 274.77 626.333 273.927C636.556 270.862 660.924 262.016 661.577 247.416C662.405 228.909 658.63 185.896 640.39 182.294C622.15 178.662 591.494 194.176 591.494 194.176Z" fill="#FBAF7B"/>
<path d="M647.68 221.123C647.68 221.123 661.679 202.093 675.272 210.098C688.864 218.087 667.401 245.15 657.439 235.693C647.462 226.237 647.68 221.123 647.68 221.123Z" fill="#FBAF7B"/>
<path d="M592.7 223.273C592.7 223.273 590.042 210.257 598.044 212.233C606.046 214.223 613.321 216.998 627.277 199.551C637.878 186.303 654.926 221.414 654.926 221.414C654.926 221.414 657.7 209.487 665.15 208.529C665.15 208.529 650.788 170.295 634.872 172.619C618.956 174.943 585.352 187.581 585.076 196.573C584.8 205.551 592.7 223.273 592.7 223.273Z" fill="#373B54"/>
<path d="M608.151 229.04C608.587 231.394 608.05 233.485 606.931 233.689C605.813 233.892 604.55 232.149 604.114 229.796C603.678 227.442 604.216 225.35 605.334 225.147C606.438 224.944 607.701 226.687 608.151 229.04Z" fill="#373B54"/>
<path d="M634.334 221.036C634.77 223.389 634.233 225.481 633.114 225.685C631.996 225.888 630.733 224.145 630.297 221.791C629.861 219.438 630.399 217.346 631.517 217.143C632.621 216.94 633.884 218.683 634.334 221.036Z" fill="#373B54"/>
<path d="M617.169 249.784C617.765 249.508 637.602 241.286 637.602 241.286C637.602 241.286 637.486 271.53 617.765 249.508L617.169 249.784Z" fill="white"/>
<path d="M661.055 230.478C661.055 230.478 665.92 228.866 665.063 225.99C664.206 223.113 660.663 222.46 660.663 222.46C660.663 222.46 664.947 212.625 671.147 216.024C677.348 219.424 670.697 230.754 661.055 230.478Z" fill="#FB8862"/>
<path d="M614.669 232.683C615.644 226.688 611.577 221.038 605.584 220.063C599.592 219.087 593.943 223.156 592.968 229.15C591.993 235.145 596.061 240.795 602.053 241.77C608.046 242.746 613.694 238.677 614.669 232.683Z" stroke="#373B54" stroke-width="2" stroke-miterlimit="10" stroke-linecap="round"/>
<path d="M643.176 223.206C644.151 217.212 640.084 211.562 634.091 210.586C628.099 209.611 622.451 213.68 621.476 219.674C620.5 225.668 624.568 231.318 630.56 232.294C636.553 233.269 642.201 229.2 643.176 223.206Z" stroke="#373B54" stroke-width="2" stroke-miterlimit="10" stroke-linecap="round"/>
<path d="M613.466 225.656L621.424 222.896" stroke="#373B54" stroke-width="2" stroke-miterlimit="10" stroke-linecap="round"/>
<path d="M696.88 281.67C698.376 282.033 695.486 281.045 696.88 281.67Z" fill="#C7C7C7"/>
<path d="M764.814 332.876C740.606 313.454 713.828 293.829 702.471 285.636C698.884 283.05 694.63 281.539 690.215 281.292L671.888 280.261L671.757 280.232C645.458 302.559 640.709 285.258 640.709 285.258L640.593 285.374L638.676 286.159C630.602 289.485 623.385 294.57 617.547 301.063L579.586 343.306L525.231 395.907L535.759 408.894L569.16 424.248L621.613 382.964L621.279 389.471L618.839 461.015C663.567 450.163 718.184 466.622 748.085 451.224C747.402 445.297 743.22 419.701 739.88 399.001C739.88 399.001 765.482 391.447 772.438 386.726C792.74 372.94 780.992 345.848 764.814 332.876Z" fill="#324D8C"/>
<path d="M506.265 372.534L458.764 387.147C456.382 387.874 455.729 390.939 457.602 392.566C465.066 399.088 479.196 407.078 483.146 407.804C488.461 408.777 510.752 410.027 510.752 410.027L506.076 418.786C504.885 421.009 505.641 423.769 507.804 425.076C510.796 426.892 514.615 426.601 517.302 424.35L535.774 408.879L506.265 372.534Z" fill="#FBAF7B"/>
<path d="M694.165 351.049V387.946C694.165 387.946 670.901 390.517 663.669 381.947C656.422 373.362 661.694 357.92 661.694 357.92L674.575 351.063C674.575 351.063 663.625 347.185 667.11 344.192C670.581 341.185 694.165 351.049 694.165 351.049Z" fill="#C7C7C7"/>
<path d="M695.138 397.345H665.658L661.36 366.549L660.575 360.985L658.833 348.536H701.963L695.138 397.345Z" fill="#D64D8B"/>
<path d="M701.034 336.566L657.831 340.241L654.505 348.536H705.245L701.034 336.566Z" fill="#FFDF4F"/>
<path d="M658.833 365.619L660.837 362.917L699.625 365.212L700.859 356.38L712.666 360.462L722.454 402.124L677.131 409.14C670.697 410.128 664.54 406.192 662.725 399.931L656.509 378.489C655.246 374.073 656.103 369.323 658.833 365.619Z" fill="#FBAF7B"/>
<path d="M715.919 360.462L732.59 354.128" stroke="#324D8C" stroke-width="3" stroke-miterlimit="10" stroke-linecap="round"/>
<path d="M722.468 402.124L739.865 399.001" stroke="#324D8C" stroke-width="3" stroke-miterlimit="10" stroke-linecap="round"/>
<path d="M624.43 343.611L619.58 438.615" stroke="#324D8C" stroke-width="3" stroke-miterlimit="10" stroke-linecap="round"/>
<path d="M596.577 441.753C594.631 442.203 589.65 441.97 587.661 442.421C587.501 442.464 584.03 438.586 583.87 438.629C580.138 439.472 579.31 436.683 575.477 437.467C540.856 444.6 502.242 450.091 461.348 454.115L425.682 369.803C425.276 368.858 425.087 367.885 425.073 366.955C424.956 362.801 428.209 359.009 432.726 358.937L552.082 356.685C557.673 356.569 562.726 359.91 564.847 365.052C570.888 379.681 586.818 418.423 596.577 441.753Z" fill="white"/>
<path d="M596.577 459.199C592.845 460.041 459.809 454.26 459.039 454.333C458.851 454.362 458.676 454.362 458.488 454.391L424.477 373.986C423.446 371.531 423.795 368.945 425.073 366.955C426.351 364.922 428.601 363.484 431.317 363.44L547.217 361.261C552.634 361.159 557.557 364.384 559.619 369.381C565.398 383.399 587.167 436.639 596.577 459.199Z" fill="#373B54"/>
<path d="M514.528 416.07C512.451 419.672 507.078 420.442 502.504 417.813C497.944 415.183 495.925 410.128 498.002 406.526C500.079 402.923 505.452 402.153 510.026 404.782C514.586 407.412 516.605 412.467 514.528 416.07Z" fill="#324D8C" fill-opacity="0.83"/>
<path d="M859.149 460.158C859.149 462.613 858.147 464.85 856.52 466.462C854.908 468.075 852.672 469.092 850.218 469.092H18.9657C14.0573 469.092 10.0347 465.068 10.0347 460.158C10.0347 457.703 11.0367 455.466 12.6631 453.853C14.2751 452.241 16.5115 451.224 18.9657 451.224H850.218C855.141 451.224 859.149 455.248 859.149 460.158Z" fill="#373B54"/>
<path d="M705.463 451.732H586.165C582.563 451.732 579.615 448.783 579.615 445.181C579.615 441.578 582.563 438.629 586.165 438.629H705.463C709.064 438.629 712.012 441.578 712.012 445.181C712.012 448.783 709.064 451.732 705.463 451.732Z" fill="#373B54"/>
</g>
<defs>
<clipPath id="clip0_36_383">
<rect width="922" height="573" fill="white"/>
</clipPath>
</defs>
</svg>
