<svg width="175" height="133" viewBox="0 0 175 133" fill="none" xmlns="http://www.w3.org/2000/svg">
<path d="M117.257 35.3404C136.266 42.9836 151.887 54.8329 165.651 68.9679C168.415 71.8095 171.017 74.7915 173.57 77.796C175.397 79.9469 175.512 82.401 173.691 84.5406C157.55 103.528 138.729 119.449 114.002 128.293C90.7586 136.61 68.5312 133.454 47.2475 122.369C29.4184 113.086 14.8683 100.293 2.16347 85.5795C-0.625545 82.3448 -0.728414 80.34 1.9154 77.2625C17.1249 59.5783 34.7786 44.6515 57.4537 35.5482C72.0825 29.6741 87.1952 27.9556 102.919 31.0443C104.94 31.4431 106.785 32.3697 108.86 32.482C111.661 33.4367 114.462 34.3914 117.257 35.3404ZM88.7803 40.3217C80.5766 40.3217 73.7644 41.4673 67.176 43.6687C45.7471 50.8288 29.3095 64.245 14.6021 79.8402C13.4224 81.0925 13.8761 81.9349 14.8502 82.9625C27.0287 95.8621 40.5986 107.155 57.2299 114.984C76.4203 124.014 95.7377 124.677 115.339 116.118C133.308 108.273 147.652 96.2776 160.538 82.5582C161.658 81.3677 161.186 80.7331 160.284 79.7671C150.024 68.7265 138.638 58.8763 125.146 51.295C113.615 44.8031 101.322 40.4115 88.7803 40.3217Z" fill="#324D8C"/>
<path d="M56.3527 31.8979C54.4288 31.9596 53.0615 31.078 52.142 29.6122C49.0565 24.6872 45.971 19.7621 42.9884 14.7865C41.7179 12.6637 42.4984 10.131 44.6461 8.94603C46.9995 7.64877 49.4134 7.99695 50.7868 10.0523C54.2776 15.2807 57.6292 20.6157 60.6482 26.0855C62.1788 28.8597 59.6802 31.8754 56.3527 31.8979Z" fill="#EF4193"/>
<path d="M80.5524 12.8827C80.5524 10.1759 80.498 7.46347 80.5706 4.75665C80.6492 1.78588 82.4884 -0.0111793 85.2895 5.23403e-05C88.0422 0.011284 90.0084 1.85889 90.0508 4.7735C90.1294 10.1871 90.1173 15.6064 90.0326 21.0201C89.9842 24.0021 88.1088 25.889 85.4287 25.9395C82.5549 25.9957 80.6432 24.1088 80.5706 21.0032C80.498 18.2964 80.5524 15.5896 80.5524 12.8827Z" fill="#EF4193"/>
<path d="M118.086 12.2931C118.28 11.973 118.473 11.6473 118.667 11.3272C122.569 6.99179 125.999 7.31751 128.268 12.237C128.232 12.7873 128.196 13.3433 128.165 13.8936C124.953 19.0265 121.771 24.1762 118.522 29.2922C116.949 31.7744 114.244 32.5438 111.903 31.3027C109.616 30.0896 108.999 27.5008 110.427 24.968C111.395 23.2496 112.405 21.548 113.397 19.8352L113.44 19.7453C115.364 17.4653 116.725 14.882 118.086 12.2931Z" fill="#EF4193"/>
<path d="M53.0736 81.0307C53.1583 63.1667 68.513 49.0991 87.782 49.2283C107.099 49.3631 122.224 63.7115 122.091 81.772C121.964 99.3438 106.295 113.434 86.9895 113.344C68.1319 113.26 52.9889 98.8272 53.0736 81.0307ZM64.629 81.2048C64.629 93.0036 74.7807 102.545 87.3404 102.573C100.118 102.595 110.621 93.0036 110.608 81.3171C110.596 69.6193 100.045 59.859 87.4493 59.8983C74.8533 59.9433 64.629 69.4902 64.629 81.2048Z" fill="#324D8C"/>
<path d="M86.4753 72.1295C87.0863 72.1183 87.6974 72.1127 88.3145 72.1014C89.3188 72.3317 90.3291 72.5619 91.3334 72.7922C91.4544 72.9157 91.6057 72.9607 91.7811 72.9214C92.8398 73.6458 93.8925 74.3758 94.9513 75.1003C95.1267 75.2968 95.3022 75.4934 95.4776 75.6956C95.8769 76.5435 96.3427 77.3691 96.6694 78.2395C98.9684 84.3552 94.1526 90.3865 87.171 90.2574C84.6059 90.2124 82.6094 89.0163 80.5282 87.9043L80.5403 87.9156C79.6328 86.2814 78.2777 84.8774 77.9812 82.9231C77.2734 78.1834 79.167 75.1958 84.866 72.3822C85.0293 72.4215 85.1625 72.3822 85.2653 72.2643C85.6707 72.2194 86.07 72.1744 86.4753 72.1295Z" fill="#EF4193"/>
</svg>
