<svg width="2783" height="1588" viewBox="0 0 2783 1588" fill="none" xmlns="http://www.w3.org/2000/svg">
<g clip-path="url(#clip0_50_18)">
<path d="M102.3 1573.96H2694.88C2694.88 1573.96 2989.04 621.32 2258.15 317.93C1527.26 14.54 1337.05 541.21 737.54 614.9C138.03 688.59 -175.62 1010.19 102.3 1573.96Z" fill="#F7F7F7"/>
<path d="M1652.63 191.55H1618.61C1613.88 165.74 1603.78 141.36 1588.87 119.76L1612.93 95.7C1615.96 92.67 1615.96 87.76 1612.93 84.73L1575.65 47.45C1572.62 44.42 1567.71 44.42 1564.68 47.45L1540.62 71.51C1519.02 56.6 1494.65 46.51 1468.83 41.77V7.75C1468.83 3.47 1465.36 0 1461.08 0H1408.35C1404.07 0 1400.6 3.47 1400.6 7.75V41.77C1374.79 46.5 1350.41 56.6 1328.81 71.51L1304.75 47.45C1301.72 44.42 1296.81 44.42 1293.78 47.45L1256.5 84.73C1253.47 87.76 1253.47 92.67 1256.5 95.7L1280.56 119.76C1265.65 141.36 1255.56 165.73 1250.82 191.55H1216.8C1212.52 191.55 1209.05 195.02 1209.05 199.3V252.03C1209.05 256.31 1212.52 259.78 1216.8 259.78H1250.82C1255.55 285.59 1265.65 309.97 1280.56 331.57L1256.5 355.63C1253.47 358.66 1253.47 363.57 1256.5 366.6L1293.78 403.88C1296.81 406.91 1301.72 406.91 1304.75 403.88L1328.81 379.82C1350.41 394.73 1374.78 404.82 1400.6 409.56V443.58C1400.6 447.86 1404.07 451.33 1408.35 451.33H1461.08C1465.36 451.33 1468.83 447.86 1468.83 443.58V409.56C1494.64 404.83 1519.02 394.73 1540.62 379.82L1564.68 403.88C1567.71 406.91 1572.62 406.91 1575.65 403.88L1612.93 366.6C1615.96 363.57 1615.96 358.66 1612.93 355.63L1588.87 331.57C1603.78 309.97 1613.87 285.6 1618.61 259.78H1652.63C1656.91 259.78 1660.38 256.31 1660.38 252.03V199.3C1660.38 195.02 1656.91 191.55 1652.63 191.55ZM1434.71 310.59C1387.81 310.59 1349.79 272.57 1349.79 225.67C1349.79 178.77 1387.81 140.75 1434.71 140.75C1481.61 140.75 1519.63 178.77 1519.63 225.67C1519.63 272.57 1481.61 310.59 1434.71 310.59Z" fill="#D1D1D1"/>
<path d="M1434.71 350.48C1365.89 350.48 1309.9 294.49 1309.9 225.67C1309.9 156.85 1365.89 100.86 1434.71 100.86C1503.53 100.86 1559.52 156.85 1559.52 225.67C1559.52 294.49 1503.53 350.48 1434.71 350.48ZM1434.71 106.69C1369.11 106.69 1315.73 160.06 1315.73 225.67C1315.73 291.28 1369.1 344.65 1434.71 344.65C1500.31 344.65 1553.69 291.28 1553.69 225.67C1553.69 160.06 1500.31 106.69 1434.71 106.69Z" fill="white"/>
<path d="M1925.31 425.19H1901.87C1898.61 407.4 1891.65 390.61 1881.38 375.73L1897.96 359.15C1900.05 357.06 1900.05 353.68 1897.96 351.59L1872.27 325.9C1870.18 323.81 1866.8 323.81 1864.71 325.9L1848.13 342.48C1833.25 332.21 1816.46 325.25 1798.67 321.99V298.55C1798.67 295.6 1796.28 293.21 1793.33 293.21H1757C1754.05 293.21 1751.66 295.6 1751.66 298.55V322C1733.87 325.26 1717.08 332.22 1702.2 342.49L1685.62 325.91C1683.53 323.82 1680.15 323.82 1678.06 325.91L1652.37 351.6C1650.28 353.69 1650.28 357.07 1652.37 359.16L1668.95 375.74C1658.68 390.62 1651.72 407.41 1648.46 425.2H1625.02C1622.07 425.2 1619.68 427.59 1619.68 430.54V466.87C1619.68 469.82 1622.07 472.21 1625.02 472.21H1648.46C1651.72 490 1658.68 506.79 1668.95 521.67L1652.37 538.25C1650.28 540.34 1650.28 543.72 1652.37 545.81L1678.06 571.5C1680.15 573.59 1683.53 573.59 1685.62 571.5L1702.2 554.92C1717.08 565.19 1733.87 572.15 1751.66 575.41V598.85C1751.66 601.8 1754.05 604.19 1757 604.19H1793.33C1796.28 604.19 1798.67 601.8 1798.67 598.85V575.41C1816.46 572.15 1833.25 565.19 1848.13 554.92L1864.71 571.5C1866.8 573.59 1870.18 573.59 1872.27 571.5L1897.96 545.81C1900.05 543.72 1900.05 540.34 1897.96 538.25L1881.38 521.67C1891.65 506.79 1898.61 490 1901.87 472.21H1925.31C1928.26 472.21 1930.65 469.82 1930.65 466.87V430.54C1930.66 427.58 1928.27 425.19 1925.31 425.19ZM1775.18 507.2C1742.87 507.2 1716.67 481.01 1716.67 448.69C1716.67 416.38 1742.86 390.18 1775.18 390.18C1807.49 390.18 1833.69 416.37 1833.69 448.69C1833.68 481 1807.49 507.2 1775.18 507.2Z" fill="#E8E8E8"/>
<path d="M1775.18 534.68C1727.77 534.68 1689.19 496.11 1689.19 448.69C1689.19 401.28 1727.76 362.7 1775.18 362.7C1822.6 362.7 1861.17 401.27 1861.17 448.69C1861.17 496.11 1822.59 534.68 1775.18 534.68ZM1775.18 366.72C1729.98 366.72 1693.21 403.49 1693.21 448.69C1693.21 493.89 1729.98 530.66 1775.18 530.66C1820.38 530.66 1857.15 493.89 1857.15 448.69C1857.15 403.49 1820.38 366.72 1775.18 366.72Z" fill="white"/>
<path d="M511.79 293.21H225.2C215.7 293.21 208 285.51 208 276.01V127.86C208 118.36 215.7 110.66 225.2 110.66H511.79C521.29 110.66 528.99 118.36 528.99 127.86V276.01C528.99 285.51 521.29 293.21 511.79 293.21Z" fill="#E8E8E8"/>
<path d="M501.64 166.03H235.36C232.63 166.03 230.42 163.82 230.42 161.09V147.43C230.42 144.7 232.63 142.49 235.36 142.49H501.64C504.37 142.49 506.58 144.7 506.58 147.43V161.09C506.58 163.82 504.36 166.03 501.64 166.03Z" fill="#D1D1D1"/>
<path d="M501.64 213.71H235.36C232.63 213.71 230.42 211.5 230.42 208.77V195.11C230.42 192.38 232.63 190.17 235.36 190.17H501.64C504.37 190.17 506.58 192.38 506.58 195.11V208.77C506.58 211.5 504.36 213.71 501.64 213.71Z" fill="#F7F7F7"/>
<path d="M379.14 261.39H234.09C232.06 261.39 230.42 259.75 230.42 257.72V241.52C230.42 239.49 232.06 237.85 234.09 237.85H379.14C381.17 237.85 382.81 239.49 382.81 241.52V257.72C382.81 259.75 381.17 261.39 379.14 261.39Z" fill="#F7F7F7"/>
<path d="M2259.92 421.05H2081.81C2073.8 421.05 2067.31 414.56 2067.31 406.55V199.15C2067.31 191.14 2073.8 184.65 2081.81 184.65H2259.92C2267.93 184.65 2274.42 191.14 2274.42 199.15V406.55C2274.42 414.56 2267.93 421.05 2259.92 421.05Z" fill="#E8E8E8"/>
<path d="M2134.05 246.89H2097.71C2096.03 246.89 2094.67 245.53 2094.67 243.85V207.5C2094.67 205.82 2096.03 204.46 2097.71 204.46H2134.05C2135.73 204.46 2137.09 205.82 2137.09 207.5V243.84C2137.09 245.52 2135.73 246.89 2134.05 246.89Z" fill="white"/>
<path d="M2189.04 246.89H2152.7C2151.02 246.89 2149.66 245.53 2149.66 243.85V207.5C2149.66 205.82 2151.02 204.46 2152.7 204.46H2189.04C2190.72 204.46 2192.08 205.82 2192.08 207.5V243.84C2192.08 245.52 2190.72 246.89 2189.04 246.89Z" fill="white"/>
<path d="M2244.03 246.89H2207.69C2206.01 246.89 2204.65 245.53 2204.65 243.85V207.5C2204.65 205.82 2206.01 204.46 2207.69 204.46H2244.03C2245.71 204.46 2247.07 205.82 2247.07 207.5V243.84C2247.07 245.52 2245.71 246.89 2244.03 246.89Z" fill="white"/>
<path d="M2239.02 284H2102.71C2098.26 284 2094.66 280.4 2094.66 275.95C2094.66 271.5 2098.26 267.9 2102.71 267.9H2239.02C2243.47 267.9 2247.07 271.5 2247.07 275.95C2247.07 280.4 2243.47 284 2239.02 284Z" fill="#D1D1D1"/>
<path d="M2239.02 312.46H2102.71C2098.26 312.46 2094.66 308.86 2094.66 304.41C2094.66 299.96 2098.26 296.36 2102.71 296.36H2239.02C2243.47 296.36 2247.07 299.96 2247.07 304.41C2247.07 308.85 2243.47 312.46 2239.02 312.46Z" fill="#D1D1D1"/>
<path d="M2239.02 340.92H2102.71C2098.26 340.92 2094.66 337.32 2094.66 332.87C2094.66 328.42 2098.26 324.82 2102.71 324.82H2239.02C2243.47 324.82 2247.07 328.42 2247.07 332.87C2247.07 337.31 2243.47 340.92 2239.02 340.92Z" fill="#D1D1D1"/>
<path d="M2239.02 369.37H2102.71C2098.26 369.37 2094.66 365.77 2094.66 361.32C2094.66 356.87 2098.26 353.27 2102.71 353.27H2239.02C2243.47 353.27 2247.07 356.87 2247.07 361.32C2247.07 365.77 2243.47 369.37 2239.02 369.37Z" fill="#D1D1D1"/>
<path d="M2239.02 397.83H2102.71C2098.26 397.83 2094.66 394.23 2094.66 389.78C2094.66 385.33 2098.26 381.73 2102.71 381.73H2239.02C2243.47 381.73 2247.07 385.33 2247.07 389.78C2247.07 394.23 2243.47 397.83 2239.02 397.83Z" fill="#D1D1D1"/>
<path d="M1991.13 1142.51H1223.16C1220.04 1142.51 1217.51 1139.98 1217.51 1136.86V1119.05C1217.51 1115.93 1220.04 1113.4 1223.16 1113.4H1991.13C1994.25 1113.4 1996.78 1115.93 1996.78 1119.05V1136.86C1996.77 1139.98 1994.25 1142.51 1991.13 1142.51Z" fill="#EF4193"/>
<path d="M1266.96 1573.96H1252.18L1344.57 1142.51H1359.36L1266.96 1573.96Z" fill="#EF4193"/>
<path d="M1947.32 1573.96H1962.11L1869.71 1142.51H1854.93L1947.32 1573.96Z" fill="#EF4193"/>
<path d="M2107.61 934.57L1942.69 1452.54L2037.54 1468.04L2201.96 1052.62C2201.96 1052.62 2280.22 1021.06 2277.15 934.57H2107.61Z" fill="#2B4284"/>
<path d="M1953.49 1497.82L1942.76 1513.3L1873.64 1537.57C1861.91 1541.69 1851.83 1551.75 1848.23 1562.95H1996.62L2009.21 1497.94L1953.49 1497.82Z" fill="#2B4284"/>
<path d="M1934.43 1516.23L1936.18 1526.35C1936.57 1528.58 1934.71 1531.27 1932.12 1532.27C1929.75 1533.18 1927.59 1532.34 1927.16 1530.34L1924.84 1519.59L1934.43 1516.23Z" fill="#2B4284"/>
<path d="M1917.55 1522.18L1919.3 1532.3C1919.69 1534.53 1917.83 1537.22 1915.24 1538.22C1912.87 1539.13 1910.71 1538.29 1910.28 1536.29L1907.96 1525.54L1917.55 1522.18Z" fill="#2B4284"/>
<path d="M1898.48 1528.87L1900.23 1538.99C1900.62 1541.22 1898.76 1543.91 1896.17 1544.91C1893.8 1545.82 1891.64 1544.98 1891.21 1542.98L1888.89 1532.23L1898.48 1528.87Z" fill="#2B4284"/>
<path d="M1996.62 1562.95L1993.08 1573.96H1844.69L1848.23 1562.95H1996.62Z" fill="#2B4284"/>
<path d="M2009.21 1497.94L2020.91 1465.32L1963.54 1455.95L1953.49 1497.82L2009.21 1497.94Z" fill="#FFBE9D"/>
<mask id="mask0_50_18" style="mask-type:luminance" maskUnits="userSpaceOnUse" x="1953" y="1455" width="68" height="43">
<path d="M2009.21 1497.94L2020.91 1465.32L1963.54 1455.95L1953.49 1497.82L2009.21 1497.94Z" fill="white"/>
</mask>
<g mask="url(#mask0_50_18)">
<path d="M1949.44 1453.65L2020.91 1485.92L2033.24 1445.27L1949.44 1453.65Z" fill="#FFBE9D"/>
</g>
<path d="M2248.68 985.03L2325.46 1406.52L2242.03 1433.3L2130.83 1031.1L2248.68 985.03Z" fill="#2B4284"/>
<path d="M2267.46 1461.57L2263.58 1480L2209.3 1529.19C2200.08 1537.54 2194.7 1550.72 2195.73 1562.44L2332.49 1504.85L2318.86 1440.05L2267.46 1461.57Z" fill="#2B4284"/>
<path d="M2257.04 1485.93L2262.58 1494.58C2263.8 1496.48 2263.14 1499.69 2261.13 1501.61C2259.3 1503.37 2256.98 1503.43 2255.81 1501.76L2249.5 1492.76L2257.04 1485.93Z" fill="#2B4284"/>
<path d="M2243.8 1497.96L2249.34 1506.61C2250.56 1508.51 2249.9 1511.72 2247.89 1513.64C2246.06 1515.4 2243.74 1515.46 2242.57 1513.79L2236.26 1504.79L2243.8 1497.96Z" fill="#2B4284"/>
<path d="M2228.82 1511.52L2234.36 1520.17C2235.58 1522.07 2234.92 1525.28 2232.91 1527.2C2231.08 1528.96 2228.76 1529.02 2227.59 1527.35L2221.28 1518.35L2228.82 1511.52Z" fill="#2B4284"/>
<path d="M2332.49 1504.85L2333.5 1516.37L2196.74 1573.96L2195.73 1562.44L2332.49 1504.85Z" fill="#2B4284"/>
<path d="M2318.86 1440.05L2317.19 1409.18L2258.97 1427.86L2267.46 1461.57L2318.86 1440.05Z" fill="#FFBE9D"/>
<mask id="mask1_50_18" style="mask-type:luminance" maskUnits="userSpaceOnUse" x="2258" y="1409" width="61" height="53">
<path d="M2318.86 1440.05L2317.19 1409.18L2258.97 1427.86L2267.46 1461.57L2318.86 1440.05Z" fill="white"/>
</mask>
<g mask="url(#mask1_50_18)">
<path d="M2242.53 1432.01L2326.66 1430.49L2318.5 1395.89L2242.53 1432.01Z" fill="#FFBE9D"/>
</g>
<path d="M2161.89 1145.3C2161.64 1145.3 2161.39 1145.25 2161.14 1145.14C2160.2 1144.73 2159.78 1143.63 2160.19 1142.69L2200.53 1051.25L2201.14 1050.95C2201.52 1050.76 2239.06 1032.12 2251.92 1010.57C2252.44 1009.69 2253.58 1009.4 2254.47 1009.93C2255.35 1010.46 2255.64 1011.59 2255.11 1012.48C2242.45 1033.69 2208.55 1051.38 2203.39 1053.98L2163.59 1144.19C2163.28 1144.88 2162.6 1145.3 2161.89 1145.3Z" fill="#2B4284"/>
<path d="M2126.38 792.25C2117.47 799.9 1904.81 816.92 1904.81 816.92C1904.81 816.92 1878.41 837.87 1873.95 831.32C1870.72 826.58 1868.71 825.48 1864.13 814.86C1862.73 811.62 1859.81 800.4 1860.31 796.9C1862.24 783.57 1871.34 781.12 1871.34 781.12C1877.94 778.41 1901.66 780.55 1901.66 780.55L2096.36 731.92L2126.38 792.25Z" fill="#FFBE9D"/>
<mask id="mask2_50_18" style="mask-type:luminance" maskUnits="userSpaceOnUse" x="1860" y="731" width="267" height="102">
<path d="M2126.38 792.25C2117.47 799.9 1904.81 816.92 1904.81 816.92C1904.81 816.92 1878.41 837.87 1873.95 831.32C1870.72 826.58 1868.71 825.48 1864.13 814.86C1862.73 811.62 1859.81 800.4 1860.31 796.9C1862.24 783.57 1871.34 781.12 1871.34 781.12C1877.94 778.41 1901.66 780.55 1901.66 780.55L2096.36 731.92L2126.38 792.25Z" fill="white"/>
</mask>
<g mask="url(#mask2_50_18)">
<path d="M1976.03 810.82C1977.31 810.7 2049.5 779.75 2049.5 779.75C2049.5 779.75 2053.27 746.54 2066.27 731.91L2088.07 728.19L2085.55 816.38C2085.55 816.37 1977.18 818.83 1976.03 810.82Z" fill="#FFBE9D"/>
</g>
<mask id="mask3_50_18" style="mask-type:luminance" maskUnits="userSpaceOnUse" x="1860" y="731" width="267" height="102">
<path d="M2126.38 792.25C2117.47 799.9 1904.81 816.92 1904.81 816.92C1904.81 816.92 1878.41 837.87 1873.95 831.32C1870.72 826.58 1868.71 825.48 1864.13 814.86C1862.73 811.62 1859.81 800.4 1860.31 796.9C1862.24 783.57 1871.34 781.12 1871.34 781.12C1877.94 778.41 1901.66 780.55 1901.66 780.55L2096.36 731.92L2126.38 792.25Z" fill="white"/>
</mask>
<g mask="url(#mask3_50_18)">
<path d="M1882.98 803.68C1877.39 797.92 1872.04 791.94 1866.7 785.96C1859.06 788.04 1853.69 795.57 1852.59 803.41C1851.49 811.26 1854.06 819.24 1858.08 826.07C1860.55 830.27 1863.76 834.3 1868.22 836.27C1873.43 838.57 1879.51 837.68 1884.91 835.84C1891.52 833.59 1897.66 829.97 1902.83 825.27C1904.52 823.73 1906.39 821.43 1906.09 818.99C1905.83 816.85 1903.69 816.94 1902.01 816.55C1897.16 815.44 1892.88 812.66 1889.12 809.48C1886.95 807.67 1884.94 805.69 1882.98 803.68Z" fill="#FFBE9D"/>
</g>
<path d="M2138.7 515.74C2138.7 515.74 2116 513.13 2104.51 535.05C2096.75 549.87 2110.68 580.54 2118.92 601.12C2124.92 616.11 2141.22 624.56 2156.77 620.22C2157.92 619.9 2159.01 619.52 2160.02 619.09L2138.7 515.74Z" fill="black"/>
<path d="M2183.66 573.21C2188.36 574.09 2193.22 569.27 2194.5 562.43C2195.79 555.59 2193.01 549.33 2188.31 548.45C2185.48 547.92 2182.61 549.46 2180.48 552.25C2175.72 532.55 2163.5 518.53 2149.17 518.53C2130.7 518.53 2115.73 541.82 2115.73 570.55C2115.73 599.28 2130.7 622.57 2149.17 622.57V661.27L2191.84 661.41L2185.32 625.76C2183.51 615.88 2182.61 605.86 2182.61 595.82V572.89C2182.96 573.04 2183.31 573.15 2183.66 573.21Z" fill="#FFBE9D"/>
<mask id="mask4_50_18" style="mask-type:luminance" maskUnits="userSpaceOnUse" x="2115" y="518" width="80" height="144">
<path d="M2183.66 573.21C2188.36 574.09 2193.22 569.27 2194.5 562.43C2195.79 555.59 2193.01 549.33 2188.31 548.45C2185.48 547.92 2182.61 549.46 2180.48 552.25C2175.72 532.55 2163.5 518.53 2149.17 518.53C2130.7 518.53 2115.73 541.82 2115.73 570.55C2115.73 599.28 2130.7 622.57 2149.17 622.57V661.27L2191.84 661.41L2185.32 625.76C2183.51 615.88 2182.61 605.86 2182.61 595.82V572.89C2182.96 573.04 2183.31 573.15 2183.66 573.21Z" fill="white"/>
</mask>
<g mask="url(#mask4_50_18)">
<path d="M2162.37 518.54C2162.37 518.54 2166.5 550.8 2149.18 563.7C2135.01 574.25 2110.66 568.61 2110.66 568.61C2110.66 568.61 2123.79 518.51 2134.54 515.29C2145.29 512.07 2162.37 518.54 2162.37 518.54Z" fill="#FFBE9D"/>
</g>
<mask id="mask5_50_18" style="mask-type:luminance" maskUnits="userSpaceOnUse" x="2115" y="518" width="80" height="144">
<path d="M2183.66 573.21C2188.36 574.09 2193.22 569.27 2194.5 562.43C2195.79 555.59 2193.01 549.33 2188.31 548.45C2185.48 547.92 2182.61 549.46 2180.48 552.25C2175.72 532.55 2163.5 518.53 2149.17 518.53C2130.7 518.53 2115.73 541.82 2115.73 570.55C2115.73 599.28 2130.7 622.57 2149.17 622.57V661.27L2191.84 661.41L2185.32 625.76C2183.51 615.88 2182.61 605.86 2182.61 595.82V572.89C2182.96 573.04 2183.31 573.15 2183.66 573.21Z" fill="white"/>
</mask>
<g mask="url(#mask5_50_18)">
<path d="M2126.87 600.27C2126.87 600.27 2134.65 602.58 2143.38 591.64C2143.38 591.64 2144.03 605.65 2136.7 606.3C2129.36 606.95 2126.87 600.27 2126.87 600.27Z" fill="white"/>
</g>
<path d="M2149.18 622.58C2149.18 622.58 2162.52 620.57 2170.86 602.84C2170.86 602.84 2168.15 627.6 2149.18 629.16V622.58Z" fill="#FFBE9D"/>
<path d="M2135.31 523.23C2135.31 523.23 2129.42 559.63 2180.5 552.25C2180.5 552.25 2187.91 543.9 2193.21 552.3C2198.51 560.69 2190.92 573.13 2182.63 572.91C2182.63 572.91 2180.55 613.08 2186.17 630.27C2186.17 630.27 2190.4 616.48 2200.83 600.67C2214.95 579.27 2215.1 551.26 2199.97 530.57C2193.39 521.58 2184.07 513.66 2170.87 509.12C2124.7 493.26 2135.31 523.23 2135.31 523.23Z" fill="black"/>
<path d="M2282.43 934.57L2245.98 700.33C2239.26 665.62 2207.77 641.32 2172.49 643.61C2152.65 644.9 2134.99 654.41 2122.99 668.88V668.87L2122.92 668.97C2121.42 670.79 2120.01 672.69 2118.69 674.66L2081.28 724.97C2063.04 749.5 2063.37 783.17 2082.1 807.33L2115.22 824.41L2107.63 934.56H2282.43V934.57Z" fill="#EF4193"/>
<mask id="mask6_50_18" style="mask-type:luminance" maskUnits="userSpaceOnUse" x="2067" y="643" width="216" height="292">
<path d="M2282.43 934.57L2245.98 700.33C2239.26 665.62 2207.77 641.32 2172.49 643.61C2152.65 644.9 2134.99 654.41 2122.99 668.88V668.87L2122.92 668.97C2121.42 670.79 2120.01 672.69 2118.69 674.66L2081.28 724.97C2063.04 749.5 2063.37 783.17 2082.1 807.33L2115.22 824.41L2107.63 934.56H2282.43V934.57Z" fill="white"/>
</mask>
<g mask="url(#mask6_50_18)">
<path d="M2194.2 718.38C2194.2 718.38 2188.16 835.31 2141.55 858.19L2100.87 870.05L2097.48 826.83L2194.2 718.38Z" fill="#EF4193"/>
</g>
<path d="M2244 538.85C2258.73 542.17 2271.57 552.96 2277.37 566.9C2281.88 577.73 2282.21 589.79 2282.05 601.52C2281.62 632.68 2278.28 664.94 2289.24 694.11C2283.54 694.74 2277.82 693.43 2272.25 692.08C2255.34 687.97 2236.64 681.85 2228.86 666.29C2223.37 655.3 2224.84 642.15 2227.98 630.28C2231.12 618.41 2235.84 606.8 2236.52 594.54C2237.21 582.28 2232.78 568.69 2221.99 562.82C2217.67 560.47 2197.63 556.13 2204.7 547.79C2207.37 544.64 2212.34 542.62 2216.09 541.15C2220.26 539.51 2224.66 538.45 2229.13 538C2234.09 537.48 2239.14 537.75 2244 538.85Z" fill="black"/>
<path d="M2207.75 545.15L2211.03 559.42C2211.03 559.42 2213.61 563.98 2219.22 561.63C2219.22 561.63 2215.63 542.91 2214.88 541.6C2214.13 540.3 2207.69 541.28 2207.75 545.15Z" fill="#FFC967"/>
<path d="M1906.82 902.82L1906.16 903.02C1903.23 903.91 1900.14 902.25 1899.25 899.32L1850.06 736.84C1849.17 733.91 1850.83 730.82 1853.76 729.93L1854.42 729.73C1857.35 728.84 1860.44 730.5 1861.33 733.43L1910.52 895.91C1911.41 898.84 1909.75 901.93 1906.82 902.82Z" fill="#2B4284"/>
<path d="M2169.56 685.52C2167.69 684.91 2165.72 684.44 2163.67 684.1C2142.99 680.7 2122.81 692.62 2114.99 712.07L2085.87 784.51L1915.7 845.39C1915.7 845.39 1891.82 841.17 1885.52 844.5C1885.52 844.5 1874.15 848.77 1876.28 867.28C1876.28 867.28 1880.05 880.93 1885.13 887.02C1890.2 893.11 1922.27 876.94 1922.27 876.94C1922.27 876.94 2050.46 865.32 2123.12 843.53C2123.12 843.53 2132.32 839.6 2140.46 831.14C2142.15 829.39 2143.79 827.44 2145.29 825.29C2148.46 820.76 2190.14 736.03 2190.14 736.03C2200.37 716.45 2190.56 692.38 2169.56 685.52Z" fill="#FFBE9D"/>
<mask id="mask7_50_18" style="mask-type:luminance" maskUnits="userSpaceOnUse" x="1876" y="683" width="319" height="206">
<path d="M2169.56 685.52C2167.69 684.91 2165.72 684.44 2163.67 684.1C2142.99 680.7 2122.81 692.62 2114.99 712.07L2085.87 784.51L1915.7 845.39C1915.7 845.39 1891.82 841.17 1885.52 844.5C1885.52 844.5 1874.15 848.77 1876.28 867.28C1876.28 867.28 1880.05 880.93 1885.13 887.02C1890.2 893.11 1922.27 876.94 1922.27 876.94C1922.27 876.94 2050.46 865.32 2123.12 843.53C2123.12 843.53 2132.32 839.6 2140.46 831.14C2142.15 829.39 2143.79 827.44 2145.29 825.29C2148.46 820.76 2190.14 736.03 2190.14 736.03C2200.37 716.45 2190.56 692.38 2169.56 685.52Z" fill="white"/>
</mask>
<g mask="url(#mask7_50_18)">
<path d="M2007.6 868.85C2045.98 866.19 2111.75 860.23 2130.15 849.78C2156.62 834.74 2199.76 745.11 2199.76 745.11C2199.76 745.11 2240.73 694.06 2185.02 699.03C2185.02 699.03 2143.45 812.55 2130.81 823.98C2118.18 835.41 1979.19 870.54 1979.19 870.54C1979.19 870.54 1990.78 870.02 2007.6 868.85Z" fill="#FFBE9D"/>
</g>
<path d="M1516.25 562.3C1516.25 562.3 1533.25 507.43 1538.17 508.47C1543.09 509.51 1536.88 536.66 1543.61 535.38C1550.34 534.1 1560.44 480.25 1564.32 483.36C1568.2 486.47 1591.24 515.98 1587.88 532.55C1584.51 549.12 1542.46 582.41 1542.46 582.41L1516.25 562.3Z" fill="#FFBE9D"/>
<path d="M1099.99 514.07C1099.99 514.07 1132.61 466.78 1128.75 463.56C1124.9 460.33 1107.39 482.01 1104.24 475.92C1101.09 469.84 1137.17 428.61 1132.32 427.48C1127.48 426.35 1090.04 426.48 1079.1 439.37C1068.16 452.26 1067.99 505.89 1067.99 505.89L1099.99 514.07Z" fill="#FFBE9D"/>
<path d="M1166.17 436.23C1144.15 440.69 1131.91 472.07 1138.84 506.32L1144.94 536.46C1147.36 548.43 1148.7 560.6 1148.93 572.81L1149.76 616.88L1200.61 606.42L1191.27 560.27C1213.29 555.81 1225.53 524.43 1218.6 490.18C1211.66 455.93 1188.19 431.78 1166.17 436.23Z" fill="#FFBE9D"/>
<mask id="mask8_50_18" style="mask-type:luminance" maskUnits="userSpaceOnUse" x="1136" y="435" width="85" height="182">
<path d="M1166.17 436.23C1144.15 440.69 1131.91 472.07 1138.84 506.32L1144.94 536.46C1147.36 548.43 1148.7 560.6 1148.93 572.81L1149.76 616.88L1200.61 606.42L1191.27 560.27C1213.29 555.81 1225.53 524.43 1218.6 490.18C1211.66 455.93 1188.19 431.78 1166.17 436.23Z" fill="white"/>
</mask>
<g mask="url(#mask8_50_18)">
<path d="M1214.16 540.18C1214.16 540.18 1192.97 550.96 1187.47 545.24L1191.27 560.29C1191.27 560.29 1212.83 557.45 1214.16 540.18Z" fill="#FFBE9D"/>
</g>
<path d="M1305.58 868.97L1252.19 1472.79H1122.32L1190.23 938.74L1094.89 1472.79H954.37L1104.75 868.97H1305.58Z" fill="#2B4284"/>
<mask id="mask9_50_18" style="mask-type:luminance" maskUnits="userSpaceOnUse" x="954" y="868" width="352" height="605">
<path d="M1305.58 868.97L1252.19 1472.79H1122.32L1190.23 938.74L1094.89 1472.79H954.37L1104.75 868.97H1305.58Z" fill="white"/>
</mask>
<g mask="url(#mask9_50_18)">
<path d="M1017.57 1473.85C1017.34 1473.85 1017.1 1473.77 1016.91 1473.62C1016.45 1473.26 1016.37 1472.6 1016.72 1472.14C1022.04 1463.85 1112.48 1065.64 1159.57 856.18C1159.7 855.6 1160.27 855.25 1160.85 855.37C1161.42 855.5 1161.79 856.07 1161.66 856.64C1156.07 881.5 1024.73 1465.47 1018.42 1473.44C1018.2 1473.71 1017.88 1473.85 1017.57 1473.85Z" fill="#2B4284"/>
</g>
<mask id="mask10_50_18" style="mask-type:luminance" maskUnits="userSpaceOnUse" x="954" y="868" width="352" height="605">
<path d="M1305.58 868.97L1252.19 1472.79H1122.32L1190.23 938.74L1094.89 1472.79H954.37L1104.75 868.97H1305.58Z" fill="white"/>
</mask>
<g mask="url(#mask10_50_18)">
<path d="M1199.06 1473.85C1199.03 1473.85 1199 1473.85 1198.97 1473.85C1198.38 1473.8 1197.94 1473.29 1197.99 1472.7L1247.96 850.81C1248.01 850.22 1248.52 849.79 1249.11 849.83C1249.7 849.88 1250.14 850.39 1250.09 850.98L1200.12 1472.87C1200.07 1473.43 1199.61 1473.85 1199.06 1473.85Z" fill="#2B4284"/>
</g>
<path d="M1231.04 1472.79L1228.32 1493.24L1305.62 1525.54C1318.74 1531.02 1326.06 1544.41 1324.07 1559.31H1126.59L1138.11 1472.79H1231.04Z" fill="#2B4284"/>
<path d="M1192.58 1521.43C1191.37 1530.5 1183.04 1537.86 1173.97 1537.86C1164.9 1537.86 1158.52 1530.51 1159.73 1521.43C1160.94 1512.36 1169.27 1505 1178.34 1505C1187.41 1505.01 1193.79 1512.36 1192.58 1521.43Z" fill="#2B4284"/>
<path d="M1237.63 1497.13L1229.17 1510.6C1227.31 1513.56 1228.14 1517.15 1230.99 1518.48C1233.59 1519.69 1236.97 1518.57 1238.76 1515.92L1248.36 1501.62L1237.63 1497.13Z" fill="#2B4284"/>
<path d="M1256.49 1505.05L1248.03 1518.52C1246.17 1521.48 1247 1525.07 1249.85 1526.4C1252.45 1527.61 1255.83 1526.49 1257.62 1523.84L1267.22 1509.54L1256.49 1505.05Z" fill="#2B4284"/>
<path d="M1277.82 1513.95L1269.36 1527.42C1267.5 1530.38 1268.33 1533.97 1271.18 1535.3C1273.78 1536.51 1277.16 1535.39 1278.95 1532.74L1288.55 1518.44L1277.82 1513.95Z" fill="#2B4284"/>
<path d="M1126.58 1559.31L1124.63 1573.96H1322.11L1324.06 1559.31H1126.58Z" fill="#2B4284"/>
<path d="M985.59 1472.79L982.87 1493.24L896.97 1525.54C882.39 1531.02 871.5 1544.41 869.52 1559.31H1067L1078.52 1472.79H985.59Z" fill="#2B4284"/>
<path d="M1037.98 1532.63C1045.06 1526.01 1046.1 1515.61 1040.3 1509.41C1034.5 1503.21 1024.06 1503.56 1016.98 1510.19C1009.9 1516.81 1008.86 1527.21 1014.66 1533.41C1020.46 1539.61 1030.9 1539.26 1037.98 1532.63Z" fill="#2B4284"/>
<path d="M972.52 1497.13L977.39 1510.6C978.46 1513.56 976.67 1517.15 973.47 1518.48C970.54 1519.69 967.46 1518.57 966.39 1515.92L960.6 1501.62L972.52 1497.13Z" fill="#2B4284"/>
<path d="M951.55 1505.05L956.42 1518.52C957.49 1521.48 955.7 1525.07 952.5 1526.4C949.57 1527.61 946.49 1526.49 945.42 1523.84L939.63 1509.54L951.55 1505.05Z" fill="#2B4284"/>
<path d="M927.84 1513.95L932.71 1527.42C933.78 1530.38 931.99 1533.97 928.79 1535.3C925.86 1536.51 922.78 1535.39 921.71 1532.74L915.92 1518.44L927.84 1513.95Z" fill="#2B4284"/>
<path d="M1067 1559.31L1065.05 1573.96H867.57L869.52 1559.31H1067Z" fill="#2B4284"/>
<path d="M1504.72 545.78L1395.6 693.15L1395.28 693.57L1300.5 616.45C1272.37 593.56 1238.07 580.84 1204.5 580.84H1116.69C1113.33 580.84 1110.01 580.97 1106.73 581.22L1127.18 512.37L1060.1 493.68L971.8 698.76C963.98 716.93 964.7 737.65 973.78 755.23C982.7 772.5 998.76 784.97 1017.7 789.32C1034.02 793.05 1051.06 787.3 1061.78 774.44L1070.81 763.61L1075.04 886.95H1331.75L1299.95 757.16L1328.38 781.96L1328.27 782.1L1336.17 788.75L1343.78 795.39L1343.89 795.25L1349.17 799.7C1364.03 812.22 1383.65 817.57 1402.81 814.32C1422.31 811.01 1439.31 799.14 1449.13 781.97L1559.98 588.15L1504.72 545.78Z" fill="#D13981"/>
<path d="M1106.72 581.22C1106.72 581.22 1052.55 588.91 1024.03 625.08L975.43 690.32L1014.19 600.3C1014.19 600.3 1050.3 559.62 1106.72 581.22Z" fill="#EF4193"/>
<path d="M1299.93 757.17L1248.36 710.43C1248.36 710.43 1238.57 783.4 1331.73 886.95L1299.93 757.17Z" fill="#EF4193"/>
<path d="M1197.41 448.07C1197.41 448.07 1211.49 482.42 1207.21 493.69C1207.21 493.69 1199.95 481.09 1192.14 488.58C1184.33 496.06 1194.74 507.78 1205.15 508.1C1205.15 508.1 1181.58 541.61 1178.72 542.91C1175.87 544.21 1146.9 547.79 1146.9 547.79C1146.9 547.79 1103.64 494.43 1109.17 465.8C1114.7 437.17 1143.01 414.72 1173.59 413.74C1204.17 412.76 1237.36 435.7 1237.36 435.7C1237.36 435.7 1223.18 452.79 1197.41 448.07Z" fill="black"/>
<path d="M1070.8 763.62L1068 701.36C1068 701.36 1039.64 790.34 1017.7 789.32C1017.69 789.33 1048.7 801.35 1070.8 763.62Z" fill="#EF4193"/>
<path d="M1651.03 1022.5H1571.41V1102.12H1651.03V1022.5Z" fill="#2B4284"/>
<mask id="mask11_50_18" style="mask-type:luminance" maskUnits="userSpaceOnUse" x="1571" y="1022" width="81" height="81">
<path d="M1651.03 1022.5H1571.41V1102.12H1651.03V1022.5Z" fill="white"/>
</mask>
<g mask="url(#mask11_50_18)">
<path d="M1651.03 1037.38H1571.41V1050.5H1651.03V1037.38Z" fill="#2B4284"/>
</g>
<path d="M1463.41 1037.38C1447.92 1037.38 1435.32 1024.78 1435.32 1009.29V832.37C1435.32 816.88 1447.92 804.28 1463.41 804.28H1759.04C1774.53 804.28 1787.13 816.88 1787.13 832.37V1009.29C1787.13 1024.78 1774.53 1037.38 1759.04 1037.38H1463.41Z" fill="#2B4284"/>
<path d="M1759.04 1027.17H1463.41C1453.54 1027.17 1445.53 1019.17 1445.53 1009.29V832.37C1445.53 822.5 1453.53 814.49 1463.41 814.49H1759.04C1768.91 814.49 1776.92 822.49 1776.92 832.37V1009.29C1776.91 1019.17 1768.91 1027.17 1759.04 1027.17Z" fill="white"/>
<path d="M1670.48 1113.79H1546.97V1111.67C1546.97 1103.91 1553.26 1097.62 1561.02 1097.62H1656.44C1664.2 1097.62 1670.49 1103.91 1670.49 1111.67V1113.79H1670.48Z" fill="#2B4284"/>
<path d="M1546.33 857.09H1515.92V984.57H1546.33V857.09Z" fill="#EF4193"/>
<path d="M1599.73 891.29H1569.32V984.57H1599.73V891.29Z" fill="#E8E8E8"/>
<path d="M1653.13 906.73H1622.72V984.57H1653.13V906.73Z" fill="#E8E8E8"/>
<path d="M1706.53 943.51H1676.12V984.57H1706.53V943.51Z" fill="#E8E8E8"/>
<path d="M1839.3 1113.79H1781.42V1109.35C1781.42 1093.37 1794.38 1080.41 1810.36 1080.41C1826.34 1080.41 1839.3 1093.37 1839.3 1109.35V1113.79Z" fill="#2B4284"/>
<path d="M671.72 773.54L762.04 524.6L791.83 543.71C791.83 543.71 788.49 773.9 754.56 792.81C721.27 811.37 671.72 773.54 671.72 773.54Z" fill="#FFBE9D"/>
<mask id="mask12_50_18" style="mask-type:luminance" maskUnits="userSpaceOnUse" x="671" y="524" width="121" height="274">
<path d="M671.72 773.54L762.04 524.6L791.83 543.71C791.83 543.71 788.49 773.9 754.56 792.81C721.27 811.37 671.72 773.54 671.72 773.54Z" fill="white"/>
</mask>
<g mask="url(#mask12_50_18)">
<path d="M765.49 788.56C788.22 764.98 803.42 731.67 803.42 731.67C702.16 723.29 689.36 722.31 689.36 722.31L659.64 757.14C659.64 757.14 672.18 793.25 707.77 808.36C729 817.37 749.18 805.47 765.49 788.56Z" fill="#FFBE9D"/>
</g>
<path d="M554.64 422.9C532.86 427.31 520.77 458.34 527.62 492.21L533.65 522.02C533.67 522.14 533.7 522.26 533.72 522.38C537.27 540.08 537.55 558.28 534.98 576.14L532.44 593.88H590.04L579.46 545.58C601.24 541.17 613.33 510.14 606.48 476.27C599.62 442.39 576.41 418.5 554.64 422.9Z" fill="#FFBE9D"/>
<mask id="mask13_50_18" style="mask-type:luminance" maskUnits="userSpaceOnUse" x="525" y="422" width="84" height="172">
<path d="M554.64 422.9C532.86 427.31 520.77 458.34 527.62 492.21L533.65 522.02C533.67 522.14 533.7 522.26 533.72 522.38C537.27 540.08 537.55 558.28 534.98 576.14L532.44 593.88H590.04L579.46 545.58C601.24 541.17 613.33 510.14 606.48 476.27C599.62 442.39 576.41 418.5 554.64 422.9Z" fill="white"/>
</mask>
<g mask="url(#mask13_50_18)">
<path d="M552.53 465.79C552.53 465.79 578.63 476.36 613.16 472.48C613.16 472.48 610.34 445 594.13 431.96C594.13 431.96 547.27 436.54 546.21 439.71C545.16 442.89 552.53 465.79 552.53 465.79Z" fill="#FFBE9D"/>
</g>
<mask id="mask14_50_18" style="mask-type:luminance" maskUnits="userSpaceOnUse" x="525" y="422" width="84" height="172">
<path d="M554.64 422.9C532.86 427.31 520.77 458.34 527.62 492.21L533.65 522.02C533.67 522.14 533.7 522.26 533.72 522.38C537.27 540.08 537.55 558.28 534.98 576.14L532.44 593.88H590.04L579.46 545.58C601.24 541.17 613.33 510.14 606.48 476.27C599.62 442.39 576.41 418.5 554.64 422.9Z" fill="white"/>
</mask>
<g mask="url(#mask14_50_18)">
<path d="M579.45 545.58C579.45 545.58 568 545.49 560.8 538.3C560.8 538.3 562.64 554.23 581.61 555.47L579.45 545.58Z" fill="#FFBE9D"/>
</g>
<path d="M666.39 787.35L707.76 676.26L606.07 592.87C605.56 592.43 605.03 592.01 604.5 591.59L603.7 590.94V590.95C592.15 581.94 577.63 576.6 561.94 576.6H557.74C522.82 576.6 498.04 598.29 488.84 637.16L454.47 791L485.27 795.97C484.7 801.41 483.91 806.83 482.9 812.22L463.51 915.39H678.95L654.52 778.5L666.39 787.35Z" fill="#D13981"/>
<mask id="mask15_50_18" style="mask-type:luminance" maskUnits="userSpaceOnUse" x="454" y="576" width="254" height="340">
<path d="M666.39 787.35L707.76 676.26L606.07 592.87C605.56 592.43 605.03 592.01 604.5 591.59L603.7 590.94V590.95C592.15 581.94 577.63 576.6 561.94 576.6H557.74C522.82 576.6 498.04 598.29 488.84 637.16L454.47 791L485.27 795.97C484.7 801.41 483.91 806.83 482.9 812.22L463.51 915.39H678.95L654.52 778.5L666.39 787.35Z" fill="white"/>
</mask>
<g mask="url(#mask15_50_18)">
<path d="M654.52 778.47L626.79 653.44L700.2 731.81L675.95 784.38L654.52 778.47Z" fill="#EF4193"/>
</g>
<path d="M485.27 795.95L572.18 808.08L584.03 694.27C584.03 694.27 596.32 874.28 590.87 880.34C574.98 898.01 465.7 907.83 465.7 907.83L485.27 795.95Z" fill="#EF4193"/>
<path d="M762.05 524.61C762.05 524.61 756.19 465.4 759.38 462.66C762.57 459.93 768.04 494.07 775.33 493.63C782.62 493.19 797.21 433.49 802.68 434.4C808.15 435.31 830.48 466.31 829.57 477.24C828.66 488.18 791.84 543.71 791.84 543.71C791.84 543.71 762.56 529.99 762.05 524.61Z" fill="#FFBE9D"/>
<mask id="mask16_50_18" style="mask-type:luminance" maskUnits="userSpaceOnUse" x="758" y="434" width="72" height="110">
<path d="M762.05 524.61C762.05 524.61 756.19 465.4 759.38 462.66C762.57 459.93 768.04 494.07 775.33 493.63C782.62 493.19 797.21 433.49 802.68 434.4C808.15 435.31 830.48 466.31 829.57 477.24C828.66 488.18 791.84 543.71 791.84 543.71C791.84 543.71 762.56 529.99 762.05 524.61Z" fill="white"/>
</mask>
<g mask="url(#mask16_50_18)">
<path d="M802.67 434.4C802.67 434.4 788.82 510.72 780.41 508.13C772.01 505.54 759.37 462.66 759.37 462.66C759.37 462.66 772.71 488.18 775.86 485.31C779.02 482.43 792.02 430.83 802.67 434.4Z" fill="#FFBE9D"/>
</g>
<path d="M787.52 734.25C780.91 733.91 469.05 792.86 469.05 792.86C469.05 792.86 472.14 852.64 499.3 865.92C532.94 882.38 731.96 788.48 731.96 788.48L732 787.98L768.68 770.89C768.68 770.89 795.71 776.03 806.97 771.34C818.24 766.65 836.22 750.03 836.22 750.03C836.22 750.03 794.13 734.59 787.52 734.25Z" fill="#FFBE9D"/>
<mask id="mask17_50_18" style="mask-type:luminance" maskUnits="userSpaceOnUse" x="469" y="734" width="368" height="134">
<path d="M787.52 734.25C780.91 733.91 469.05 792.86 469.05 792.86C469.05 792.86 472.14 852.64 499.3 865.92C532.94 882.38 731.96 788.48 731.96 788.48L732 787.98L768.68 770.89C768.68 770.89 795.71 776.03 806.97 771.34C818.24 766.65 836.22 750.03 836.22 750.03C836.22 750.03 794.13 734.59 787.52 734.25Z" fill="white"/>
</mask>
<g mask="url(#mask17_50_18)">
<path d="M566.28 774.56C566.28 774.56 486.2 837.15 467.28 836.21C448.36 835.27 458.98 788.63 458.98 788.63C458.98 788.63 561.34 775.49 566.28 774.56Z" fill="#FFBE9D"/>
</g>
<path d="M532.28 516.08C535.37 507.56 538.28 498.98 541.01 490.34C541.01 490.34 528.66 477.92 536.64 468.11C544.62 458.29 551.74 476.19 550.78 479.27C550.78 479.27 561.56 453.29 572.14 447.9C582.73 442.51 577.87 466.93 602.82 463.09C627.76 459.25 626.77 417.35 626.77 417.35C626.77 417.35 568.11 400.79 533.94 408.03C499.78 415.28 519.79 430.81 519.79 430.81C519.79 430.81 491.15 439.09 491.15 454.97C491.16 470.84 532.28 516.08 532.28 516.08Z" fill="black"/>
<path d="M439.47 1448.19L431.68 1465.57L488.7 1524.08C498.38 1534.01 501.01 1548.85 495.34 1561.51L327.56 1486.3L360.51 1412.79L439.47 1448.19Z" fill="#2B4284"/>
<path d="M393.78 1477.34C390.33 1485.05 381.28 1488.49 373.57 1485.04C365.86 1481.59 362.42 1472.54 365.87 1464.83C369.32 1457.12 378.37 1453.68 386.08 1457.13C393.78 1460.58 397.23 1469.63 393.78 1477.34Z" fill="#2B4284"/>
<path d="M438.55 1472.62L427.76 1481.53C425.39 1483.49 425.13 1487.04 427.2 1489.32C429.09 1491.4 432.26 1491.68 434.48 1489.97L446.46 1480.75L438.55 1472.62Z" fill="#2B4284"/>
<path d="M452.46 1486.93L441.67 1495.84C439.3 1497.8 439.04 1501.35 441.11 1503.63C443 1505.71 446.17 1505.99 448.39 1504.28L460.37 1495.06L452.46 1486.93Z" fill="#2B4284"/>
<path d="M468.2 1503.06L457.41 1511.97C455.04 1513.93 454.78 1517.48 456.85 1519.76C458.74 1521.84 461.91 1522.12 464.13 1520.41L476.11 1511.19L468.2 1503.06Z" fill="#2B4284"/>
<path d="M327.524 1486.26L321.941 1498.71L489.714 1573.91L495.296 1561.46L327.524 1486.26Z" fill="#2B4284"/>
<path d="M662.76 915.37H475.78L446.92 1168.91C443.61 1197.44 435.51 1225.21 422.95 1251.04L343.09 1415.31L464.18 1459.8L539.92 1271.53C545.17 1258.48 548.28 1244.66 549.14 1230.62L572.34 985.99L567.27 1479.69H688.2L662.76 915.37Z" fill="#2B4284"/>
<path d="M668.5 1479.68V1498.72L744.47 1528.79C757.37 1533.9 765.84 1546.36 765.84 1560.23H581.98V1479.68H668.5Z" fill="#2B4284"/>
<path d="M638.342 1528.53C640.27 1520.31 635.168 1512.08 626.947 1510.15C618.725 1508.22 610.498 1513.32 608.57 1521.55C606.642 1529.77 611.744 1537.99 619.965 1539.92C628.187 1541.85 636.415 1536.75 638.342 1528.53Z" fill="#2B4284"/>
<path d="M677.65 1502.34L671.45 1514.88C670.09 1517.64 671.3 1520.98 674.12 1522.21C676.69 1523.34 679.7 1522.3 681.03 1519.82L688.19 1506.5L677.65 1502.34Z" fill="#2B4284"/>
<path d="M696.19 1509.72L689.99 1522.26C688.62 1525.02 689.84 1528.36 692.66 1529.59C695.23 1530.72 698.24 1529.68 699.57 1527.2L706.73 1513.88L696.19 1509.72Z" fill="#2B4284"/>
<path d="M717.16 1518L710.96 1530.54C709.59 1533.3 710.81 1536.64 713.63 1537.87C716.2 1539 719.21 1537.96 720.54 1535.48L727.7 1522.16L717.16 1518Z" fill="#2B4284"/>
<path d="M765.84 1560.23H581.98V1573.88H765.84V1560.23Z" fill="#2B4284"/>
<path d="M1090.49 361.49H685.88C678.14 361.49 671.87 355.22 671.87 347.48V114.96C671.87 107.22 678.14 100.95 685.88 100.95H1090.49C1098.23 100.95 1104.5 107.22 1104.5 114.96V347.47C1104.5 355.21 1098.23 361.49 1090.49 361.49Z" fill="#E8E8E8"/>
<mask id="mask18_50_18" style="mask-type:luminance" maskUnits="userSpaceOnUse" x="671" y="100" width="434" height="262">
<path d="M1090.49 361.49H685.88C678.14 361.49 671.87 355.22 671.87 347.48V114.96C671.87 107.22 678.14 100.95 685.88 100.95H1090.49C1098.23 100.95 1104.5 107.22 1104.5 114.96V347.47C1104.5 355.21 1098.23 361.49 1090.49 361.49Z" fill="white"/>
</mask>
<g mask="url(#mask18_50_18)">
<path d="M651.62 362.53C655.97 348.46 661.83 334.86 669.07 322.03C680 302.68 694.44 284.81 713.37 273.19C732.31 261.57 756.17 256.83 777.25 263.84C792.27 268.84 804.77 279.2 818.19 287.6C831.6 296 847.54 302.71 862.96 299.13C876.57 295.97 887.09 285.46 896.48 275.12C913.11 256.82 928.88 237.42 948.63 222.54C968.38 207.66 993.14 197.53 1017.62 201.02C1040.52 204.29 1060.15 218.84 1077.26 234.41C1094.57 250.15 1110.49 267.44 1124.75 285.99V414.64H655.78L651.62 362.53Z" fill="#D13981"/>
</g>
<mask id="mask19_50_18" style="mask-type:luminance" maskUnits="userSpaceOnUse" x="671" y="100" width="434" height="262">
<path d="M1090.49 361.49H685.88C678.14 361.49 671.87 355.22 671.87 347.48V114.96C671.87 107.22 678.14 100.95 685.88 100.95H1090.49C1098.23 100.95 1104.5 107.22 1104.5 114.96V347.47C1104.5 355.21 1098.23 361.49 1090.49 361.49Z" fill="white"/>
</mask>
<g mask="url(#mask19_50_18)">
<path d="M1120.85 89.2699H652.64V156.52H1120.85V89.2699Z" fill="#2B4284"/>
</g>
<path d="M718.86 124.31C718.86 129.73 714.47 134.11 709.06 134.11C703.65 134.11 699.25 129.72 699.25 124.31C699.25 118.89 703.64 114.5 709.06 114.5C714.48 114.5 718.86 118.9 718.86 124.31Z" fill="#D13981"/>
<path d="M757.3 124.31C757.3 129.73 752.91 134.11 747.49 134.11C742.07 134.11 737.68 129.72 737.68 124.31C737.68 118.89 742.07 114.5 747.49 114.5C752.91 114.5 757.3 118.9 757.3 124.31Z" fill="white"/>
<path d="M795.73 124.31C795.73 129.73 791.34 134.11 785.93 134.11C780.52 134.11 776.13 129.72 776.13 124.31C776.13 118.89 780.52 114.5 785.93 114.5C791.34 114.5 795.73 118.9 795.73 124.31Z" fill="white"/>
<path d="M2549.25 1341.27C2551.77 1256.91 2516.76 1151.08 2516.76 1151.08C2470.17 1217.46 2464.74 1274.49 2473.71 1317.97C2455.07 1293.5 2431.68 1272.35 2404.51 1267.11C2404.51 1267.11 2420.72 1386.19 2470.61 1409.59H2573.87C2668.64 1379.79 2652.53 1209.7 2652.53 1209.7C2574.72 1266.62 2564.88 1290.34 2549.25 1341.27Z" fill="#E8E8E8"/>
<mask id="mask20_50_18" style="mask-type:luminance" maskUnits="userSpaceOnUse" x="2404" y="1151" width="250" height="259">
<path d="M2549.25 1341.27C2551.77 1256.91 2516.76 1151.08 2516.76 1151.08C2470.17 1217.46 2464.74 1274.49 2473.71 1317.97C2455.07 1293.5 2431.68 1272.35 2404.51 1267.11C2404.51 1267.11 2420.72 1386.19 2470.61 1409.59H2573.87C2668.64 1379.79 2652.53 1209.7 2652.53 1209.7C2574.72 1266.62 2564.88 1290.34 2549.25 1341.27Z" fill="white"/>
</mask>
<g mask="url(#mask20_50_18)">
<path d="M2438.86 1392.08C2438.86 1392.08 2477.79 1403.71 2484.05 1371.94C2484.05 1371.94 2499.71 1393.86 2521.64 1390.29C2543.57 1386.72 2547.14 1364.34 2547.14 1364.34C2547.14 1364.34 2562.8 1401.48 2616.49 1391.63C2616.49 1391.63 2573.09 1420.71 2553.85 1421.61C2534.61 1422.51 2472.42 1420.72 2469.73 1419.82C2467.05 1418.93 2438.86 1392.08 2438.86 1392.08Z" fill="#B5B5B5"/>
</g>
<path d="M2415.49 1409.58H2633.4L2584.4 1573.96H2458.04L2415.49 1409.58Z" fill="#D1D1D1"/>
<mask id="mask21_50_18" style="mask-type:luminance" maskUnits="userSpaceOnUse" x="2415" y="1409" width="219" height="165">
<path d="M2415.49 1409.58H2633.4L2584.4 1573.96H2458.04L2415.49 1409.58Z" fill="white"/>
</mask>
<g mask="url(#mask21_50_18)">
<path d="M2419.82 1515.61C2419.82 1515.61 2568.66 1470.15 2633.39 1388.89H2655.46L2598.58 1587.97H2433.02L2419.82 1515.61Z" fill="#B5B5B5"/>
</g>
<path d="M433.44 471.1H222.26C214.39 471.1 208.01 464.72 208.01 456.85V343.47C208.01 335.6 214.39 329.22 222.26 329.22H433.44C441.31 329.22 447.69 335.6 447.69 343.47V456.85C447.69 464.72 441.31 471.1 433.44 471.1Z" fill="#E8E8E8"/>
<path d="M328.57 372.62H232.12C230.65 372.62 229.46 371.43 229.46 369.96V358.84C229.46 357.37 230.65 356.18 232.12 356.18H328.57C330.04 356.18 331.23 357.37 331.23 358.84V369.96C331.23 371.43 330.04 372.62 328.57 372.62Z" fill="#D1D1D1"/>
<path d="M328.57 422.52H232.12C230.65 422.52 229.46 421.33 229.46 419.86V408.74C229.46 407.27 230.65 406.08 232.12 406.08H328.57C330.04 406.08 331.23 407.27 331.23 408.74V419.86C331.23 421.33 330.04 422.52 328.57 422.52Z" fill="#F7F7F7"/>
<path d="M428.23 422.52H343C341.62 422.52 340.5 421.4 340.5 420.02V408.59C340.5 407.21 341.62 406.09 343 406.09H428.23C429.61 406.09 430.73 407.21 430.73 408.59V420.02C430.73 421.39 429.61 422.52 428.23 422.52Z" fill="#F7F7F7"/>
<path d="M385.65 372.62H342.3C341.3 372.62 340.49 371.81 340.49 370.81V357.99C340.49 356.99 341.3 356.18 342.3 356.18H385.65C386.65 356.18 387.46 356.99 387.46 357.99V370.81C387.46 371.81 386.65 372.62 385.65 372.62Z" fill="#F7F7F7"/>
<path d="M280.95 397.4H231.39C230.33 397.4 229.46 396.54 229.46 395.47V382.89C229.46 381.83 230.32 380.96 231.39 380.96H280.95C282.01 380.96 282.88 381.82 282.88 382.89V395.47C282.88 396.54 282.01 397.4 280.95 397.4Z" fill="#F7F7F7"/>
<path d="M384.9 397.4H295.87C294.46 397.4 293.31 396.26 293.31 394.84V383.52C293.31 382.11 294.45 380.96 295.87 380.96H384.9C386.31 380.96 387.46 382.1 387.46 383.52V394.84C387.46 396.25 386.31 397.4 384.9 397.4Z" fill="#F7F7F7"/>
<path d="M429.15 397.4H396.56C395.69 397.4 394.98 396.69 394.98 395.82V382.54C394.98 381.67 395.69 380.96 396.56 380.96H429.15C430.02 380.96 430.73 381.67 430.73 382.54V395.82C430.73 396.69 430.02 397.4 429.15 397.4Z" fill="#F7F7F7"/>
<path d="M429.15 372.62H396.56C395.69 372.62 394.98 371.91 394.98 371.04V357.76C394.98 356.89 395.69 356.18 396.56 356.18H429.15C430.02 356.18 430.73 356.89 430.73 357.76V371.04C430.73 371.92 430.02 372.62 429.15 372.62Z" fill="#F7F7F7"/>
<path d="M330.53 431.2H362.42C363.28 431.2 363.98 431.9 363.98 432.76V446.08C363.98 446.94 363.28 447.64 362.42 447.64H330.53C329.67 447.64 328.97 446.94 328.97 446.08V432.76C328.97 431.9 329.66 431.2 330.53 431.2Z" fill="#D1D1D1"/>
<path d="M373.8 431.2H405.69C406.55 431.2 407.25 431.9 407.25 432.76V446.08C407.25 446.94 406.55 447.64 405.69 447.64H373.8C372.94 447.64 372.24 446.94 372.24 446.08V432.76C372.24 431.9 372.94 431.2 373.8 431.2Z" fill="#D1D1D1"/>
<path d="M419.14 431.2H427.1C429.1 431.2 430.73 432.82 430.73 434.83V444C430.73 446 429.11 447.63 427.1 447.63H419.14C417.14 447.63 415.51 446.01 415.51 444V434.82C415.51 432.82 417.14 431.2 419.14 431.2Z" fill="#D1D1D1"/>
<path d="M274.54 431.2H317.89C318.89 431.2 319.7 432.01 319.7 433.01V445.83C319.7 446.83 318.89 447.64 317.89 447.64H274.54C273.54 447.64 272.73 446.83 272.73 445.83V433.01C272.74 432.01 273.54 431.2 274.54 431.2Z" fill="#F7F7F7"/>
<path d="M231.04 431.2H263.63C264.5 431.2 265.21 431.91 265.21 432.78V446.06C265.21 446.93 264.5 447.64 263.63 447.64H231.04C230.17 447.64 229.46 446.93 229.46 446.06V432.78C229.46 431.9 230.17 431.2 231.04 431.2Z" fill="#F7F7F7"/>
<path d="M2782.37 1571.21H23.66V1576.55H2782.37V1571.21Z" fill="#2B4284"/>
</g>
<defs>
<clipPath id="clip0_50_18">
<rect width="2782.38" height="1587.97" fill="white"/>
</clipPath>
</defs>
</svg>
