<svg width="1640" height="1533" viewBox="0 0 1640 1533" fill="none" xmlns="http://www.w3.org/2000/svg">
<g clip-path="url(#clip0_50_6250)">
<path opacity="0.17" d="M1640 1486.27C1640 1512.08 1297.94 1533 829.944 1533C361.993 1533 3.53473 1514.04 3.53473 1488.23C3.53473 1462.42 361.993 1439.58 829.987 1439.58C1297.98 1439.58 1640 1460.5 1640 1486.27Z" fill="#C0D1F9"/>
<path d="M598.354 494.898L201.566 492.598C183.126 492.47 168.135 477.305 168.263 458.903L169.03 325.786C169.115 307.341 184.276 292.347 202.716 292.475L599.504 294.775C617.944 294.86 632.935 310.067 632.807 328.47L632.04 461.587C631.955 480.032 616.794 495.026 598.354 494.898Z" fill="#2B4284"/>
<path d="M1508.87 675.853L1112.09 675.64C1093.65 675.64 1078.61 660.56 1078.61 642.115L1078.74 441.311C1078.74 422.866 1093.82 407.829 1112.26 407.829L1509.04 408.042C1527.48 408.042 1542.52 423.121 1542.52 441.566L1542.39 642.371C1542.39 660.773 1527.31 675.853 1508.87 675.853Z" fill="#FCD9D2"/>
<path d="M1219.83 451.577L1256.84 515.814C1265.61 508.444 1271.83 497.923 1273.45 485.655C1276.98 459.5 1258.63 435.432 1232.48 431.939C1221.83 430.491 1211.53 432.748 1202.8 437.647C1209.61 439.905 1215.74 444.505 1219.83 451.577Z" fill="#D13981"/>
<path d="M1262.76 525.994L1256.84 515.771L1219.83 451.534C1215.74 444.463 1209.61 439.862 1202.8 437.562C1189.47 433.089 1173.62 437.69 1165.62 451.491L1122.61 525.867C1110.55 546.739 1125.59 572.809 1149.69 572.809L1235.59 572.852C1259.69 572.937 1274.77 546.867 1262.76 525.994Z" fill="#ECF3FF"/>
<path d="M1500.27 479.435L1313.69 479.308C1305.56 479.308 1298.87 472.62 1298.92 464.484V464.356C1298.92 456.22 1305.6 449.574 1313.74 449.574L1500.31 449.702C1508.45 449.702 1515.09 456.39 1515.09 464.526V464.654C1515.05 472.79 1508.4 479.435 1500.27 479.435Z" fill="#FAFCFF"/>
<path d="M1500.27 605.993L1313.69 605.865C1305.56 605.865 1298.87 599.177 1298.92 591.041V590.913C1298.92 582.777 1305.6 576.089 1313.74 576.132L1500.31 576.26C1508.45 576.26 1515.09 582.947 1515.09 591.084V591.211C1515.05 599.347 1508.4 605.993 1500.27 605.993Z" fill="#FAFCFF"/>
<path d="M1502.31 542.693L1400.45 542.65C1392.31 542.65 1385.67 535.962 1385.67 527.826V527.698C1385.67 519.562 1392.35 512.874 1400.49 512.917L1502.36 512.96C1510.49 512.96 1517.18 519.647 1517.14 527.783V527.911C1517.09 536.047 1510.45 542.693 1502.31 542.693Z" fill="#FAFCFF"/>
<path d="M1172.69 576.856C1172.69 587.42 1164.13 596.025 1153.52 596.025C1142.96 596.025 1134.36 587.462 1134.36 576.856C1134.36 566.291 1142.92 557.687 1153.52 557.687C1164.09 557.687 1172.69 566.249 1172.69 576.856Z" stroke="#7794F2" stroke-miterlimit="10"/>
<path d="M1153.52 587.633C1159.26 587.633 1163.91 582.98 1163.91 577.239C1163.91 571.499 1159.26 566.845 1153.52 566.845C1147.78 566.845 1143.13 571.499 1143.13 577.239C1143.13 582.98 1147.78 587.633 1153.52 587.633Z" stroke="#7794F2" stroke-miterlimit="10"/>
<path d="M1158.72 544.013C1162.64 538.944 1170.77 541.883 1170.52 548.315C1170.35 552.618 1174.31 555.94 1178.52 555.003C1184.78 553.64 1189.08 561.137 1184.78 565.908C1181.89 569.103 1182.78 574.172 1186.61 576.174C1192.28 579.156 1190.79 587.676 1184.44 588.57C1180.18 589.166 1177.63 593.597 1179.25 597.601C1181.67 603.522 1175.03 609.102 1169.62 605.694C1165.96 603.394 1161.15 605.141 1159.83 609.272C1157.87 615.364 1149.22 615.364 1147.26 609.272C1145.94 605.183 1141.13 603.437 1137.47 605.694C1132.02 609.102 1125.42 603.564 1127.84 597.601C1129.46 593.597 1126.91 589.166 1122.65 588.57C1116.3 587.676 1114.81 579.199 1120.48 576.174C1124.27 574.172 1125.16 569.103 1122.31 565.908C1118.01 561.137 1122.31 553.683 1128.61 555.003C1132.83 555.898 1136.74 552.618 1136.57 548.315C1136.32 541.926 1144.45 538.944 1148.37 544.013C1150.97 547.421 1156.08 547.421 1158.72 544.013Z" stroke="#7794F2" stroke-miterlimit="10"/>
<path d="M598.354 479.52L201.566 477.22C183.126 477.135 168.135 461.928 168.263 443.526L169.03 310.408C169.115 291.964 184.276 276.969 202.716 277.097L599.504 279.397C617.944 279.482 632.935 294.69 632.807 313.092L632.04 446.209C631.955 464.654 616.794 479.648 598.354 479.52Z" fill="#D13981"/>
<path d="M313.699 399.437C301.604 425.166 270.941 436.199 245.219 424.101C219.496 412.003 208.466 381.333 220.603 355.604C232.698 329.875 263.361 318.842 289.084 330.983C314.764 343.038 325.794 373.708 313.699 399.437Z" fill="white"/>
<path d="M379.625 330.472C375.579 328.555 372.811 324.38 372.896 319.609C373.023 313.134 378.39 308.023 384.863 308.193L523.4 311.303C529.873 311.473 534.984 316.798 534.813 323.273C534.685 329.747 529.319 334.859 522.846 334.689L384.309 331.579C382.648 331.537 381.073 331.153 379.625 330.472Z" fill="#ECF3FF"/>
<path d="M379.625 389.64C375.579 387.723 372.811 383.548 372.896 378.777C373.023 372.302 378.39 367.191 384.863 367.361L523.4 370.471C529.873 370.641 534.984 375.966 534.813 382.441C534.685 388.873 529.319 394.027 522.846 393.857L384.309 390.747C382.648 390.705 381.073 390.321 379.625 389.64Z" fill="#ECF3FF"/>
<path d="M379.625 448.85C375.579 446.933 372.811 442.759 372.896 437.988C373.023 431.513 378.39 426.401 384.863 426.572L523.4 429.681C529.873 429.852 534.984 435.176 534.813 441.609C534.685 448.084 529.319 453.195 522.846 453.025L384.309 449.915C382.648 449.915 381.073 449.532 379.625 448.85Z" fill="#ECF3FF"/>
<path d="M476.511 278.545H453.854V474.622H476.511V278.545Z" fill="#2B4284"/>
<path d="M1223.03 407.829H1200.33V675.64H1223.03V407.829Z" fill="#2B4284"/>
<path d="M845.768 84.0691H828.563V1305.55H845.768V84.0691Z" fill="#D13981"/>
<path d="M1200.82 861.644H512.351C490.887 861.644 473.468 844.222 473.468 822.753V181.191H1200.82V861.644Z" fill="#FAFCFF"/>
<path d="M473.937 182.853L473 179.53L837.889 79L838.358 79.1278L1201.29 179.53L1200.35 182.853L837.889 82.5782L473.937 182.853Z" fill="#ECF3FF"/>
<path d="M677.207 1353.48C673.289 1353.48 669.754 1350.15 668.86 1345.21C667.752 1339.46 670.648 1333.67 675.29 1332.35L837.293 1285.06C841.935 1283.74 846.535 1287.28 847.642 1293.03C848.749 1298.78 845.853 1304.57 841.211 1305.89L679.208 1353.18C678.527 1353.39 677.846 1353.48 677.207 1353.48Z" fill="#D13981"/>
<path d="M996.57 1353.48C995.931 1353.48 995.25 1353.39 994.611 1353.18L832.608 1305.89C827.966 1304.53 825.113 1298.78 826.178 1293.03C827.242 1287.28 831.927 1283.74 836.526 1285.06L998.529 1332.35C1003.17 1333.71 1006.02 1339.46 1004.96 1345.21C1003.98 1350.15 1000.45 1353.48 996.57 1353.48Z" fill="#D13981"/>
<path d="M347.599 485.825C347.599 499.414 336.611 510.404 323.026 510.404C309.44 510.404 298.453 499.414 298.453 485.825C298.453 472.236 309.44 461.246 323.026 461.246C336.569 461.246 347.599 472.236 347.599 485.825Z" stroke="#ECF3FF" stroke-miterlimit="10"/>
<path d="M336.356 486.336C336.356 493.705 330.393 499.669 323.026 499.669C315.658 499.669 309.696 493.705 309.696 486.336C309.696 478.967 315.658 473.003 323.026 473.003C330.393 473.003 336.356 478.967 336.356 486.336Z" stroke="#ECF3FF" stroke-miterlimit="10"/>
<path d="M329.712 443.696C334.78 437.221 345.171 440.97 344.873 449.234C344.66 454.771 349.728 458.988 355.137 457.838C363.186 456.092 368.722 465.719 363.186 471.81C359.481 475.9 360.63 482.417 365.528 484.973C372.81 488.807 370.894 499.712 362.717 500.862C357.223 501.629 353.944 507.337 356.031 512.448C359.14 520.073 350.622 527.187 343.681 522.8C338.996 519.86 332.821 522.118 331.117 527.357C328.605 535.195 317.532 535.195 314.977 527.357C313.273 522.118 307.098 519.86 302.413 522.8C295.429 527.187 286.954 520.073 290.063 512.448C292.15 507.337 288.828 501.629 283.377 500.862C275.243 499.754 273.284 488.807 280.566 484.973C285.464 482.374 286.613 475.9 282.908 471.81C277.372 465.719 282.908 456.092 290.957 457.838C296.366 458.988 301.391 454.771 301.221 449.234C300.923 441.012 311.314 437.221 316.382 443.696C319.704 448.041 326.305 448.041 329.712 443.696Z" stroke="#ECF3FF" stroke-miterlimit="10"/>
<path d="M649.416 365.529C649.416 365.529 649.97 365.061 651.077 364.209" stroke="#455A64" stroke-miterlimit="10"/>
<path d="M657.934 359.182C694.474 333.581 843.402 244.552 1016.6 354.454" stroke="#455A64" stroke-miterlimit="10" stroke-dasharray="1.01 1.01"/>
<path d="M1020.27 356.754C1020.86 357.138 1021.46 357.521 1022.06 357.905" stroke="#455A64" stroke-miterlimit="10"/>
<path d="M935.731 1238.95L1123.41 1115.97" stroke="white" stroke-miterlimit="10" stroke-linecap="round"/>
<path d="M1002.81 1159.08L976.104 1212.5" stroke="white" stroke-miterlimit="10" stroke-linecap="round"/>
<path d="M1056.25 1189.28C1051.74 1189.28 1012.6 1189.71 1012.6 1189.71" stroke="white" stroke-miterlimit="10" stroke-linecap="round"/>
<path d="M933.858 1184.25L819.127 1103.32" stroke="white" stroke-miterlimit="10" stroke-linecap="round"/>
<path d="M894.422 1134.07L911.414 1168.07" stroke="white" stroke-miterlimit="10" stroke-linecap="round"/>
<path d="M860.394 1153.29C863.29 1153.29 888.587 1152.01 888.587 1152.01" stroke="white" stroke-miterlimit="10" stroke-linecap="round"/>
<path d="M935.646 1059.15V1293.6" stroke="white" stroke-miterlimit="10"/>
<path d="M935.646 1239.5C935.646 1239.5 936.285 1166.53 1009.75 1127.43C1063.32 1104.98 1106.68 1108.26 1119.45 1111.45C1124.05 1112.6 1128.1 1117.38 1126.4 1121.81C1119.37 1140.17 1043.09 1275.24 935.646 1239.5Z" stroke="white" stroke-miterlimit="10"/>
<path d="M916.993 1038.95L910.562 1055.01" stroke="white" stroke-miterlimit="10" stroke-linecap="round"/>
<path d="M953.576 1038.66L960.39 1054.54" stroke="white" stroke-miterlimit="10" stroke-linecap="round"/>
<path d="M997.909 1017.87C984.026 1052.24 944.888 1068.9 910.52 1055.01C876.152 1041.13 859.5 1001.98 873.383 967.603C887.267 933.184 926.405 916.571 960.773 930.458C995.184 944.345 1011.79 983.492 997.909 1017.87Z" stroke="#7794F2" stroke-miterlimit="10"/>
<path d="M959.282 934.207L952.852 950.266" stroke="#7794F2" stroke-miterlimit="10" stroke-linecap="round"/>
<path d="M995.311 1018.98L979.256 1012.54" stroke="#7794F2" stroke-miterlimit="10" stroke-linecap="round"/>
<path d="M890.589 976.676L874.533 970.244" stroke="#7794F2" stroke-miterlimit="10" stroke-linecap="round"/>
<path d="M909.455 934.675L916.269 950.607" stroke="#7794F2" stroke-miterlimit="10" stroke-linecap="round"/>
<path d="M994.843 969.136L978.915 975.952" stroke="#7794F2" stroke-miterlimit="10" stroke-linecap="round"/>
<path d="M997.909 1017.87C984.026 1052.24 944.888 1068.9 910.52 1055.01C876.152 1041.13 859.5 1001.98 873.383 967.603C887.267 933.184 926.405 916.571 960.773 930.458C995.184 944.345 1011.79 983.492 997.909 1017.87Z" stroke="white" stroke-miterlimit="10"/>
<path d="M948.891 998.955C948.848 1001.94 947.997 1004.32 946.251 1006.07C944.504 1007.86 942.418 1009.01 939.99 1009.56L939.948 1013.22C939.948 1013.95 939.905 1014.5 939.862 1014.89C939.82 1015.27 939.692 1015.7 939.479 1016.12C939.266 1016.59 938.925 1016.89 938.457 1017.1C937.989 1017.27 937.35 1017.36 936.541 1017.36C935.731 1017.36 935.093 1017.27 934.624 1017.06C934.156 1016.85 933.815 1016.5 933.645 1016.04C933.474 1015.57 933.346 1015.14 933.304 1014.76C933.261 1014.38 933.261 1013.82 933.261 1013.05L933.304 1009.52C931.728 1009.18 930.323 1008.58 929.088 1007.77C927.853 1006.96 926.958 1006.24 926.49 1005.64L925.766 1004.66C924.957 1003.64 924.574 1002.83 924.574 1002.23C924.574 1001.3 925.255 1000.19 926.532 998.912C927.299 998.188 928.108 997.847 928.875 997.847C929.812 997.847 930.919 998.529 932.239 999.892L932.537 1000.19C933.687 1001.64 935.05 1002.41 936.541 1002.41C939.351 1002.45 940.799 1001.3 940.799 998.955C940.799 998.103 940.288 997.464 939.224 996.995C938.159 996.527 936.881 996.101 935.348 995.717C933.815 995.334 932.282 994.823 930.791 994.226C929.258 993.587 927.98 992.522 926.916 991.032C925.851 989.541 925.34 987.624 925.383 985.281C925.383 983.023 926.149 980.979 927.64 979.189C929.088 977.358 931.132 976.208 933.687 975.697L933.73 972.502C933.73 971.735 933.772 971.181 933.815 970.798C933.858 970.414 933.985 970.031 934.198 969.562C934.369 969.094 934.752 968.796 935.22 968.583C935.731 968.412 936.37 968.327 937.179 968.327C938.201 968.327 938.968 968.583 939.479 969.009C939.99 969.477 940.288 969.903 940.373 970.414C940.459 970.926 940.459 971.65 940.459 972.587L940.416 975.782C941.481 976.037 942.46 976.378 943.312 976.804C944.206 977.23 944.802 977.571 945.143 977.869L945.654 978.338L945.867 978.508C946.804 979.403 947.273 980.127 947.273 980.638C947.273 981.234 946.889 982.129 946.08 983.279C945.015 984.812 943.993 985.537 942.886 985.537C942.205 985.537 941.438 985.196 940.544 984.599C940.459 984.514 940.288 984.386 940.033 984.131C939.777 983.918 939.522 983.705 939.309 983.534C939.096 983.364 938.713 983.236 938.244 983.108C937.733 982.981 937.137 982.895 936.455 982.895C935.731 982.895 935.05 983.108 934.369 983.577C933.73 984.046 933.389 984.642 933.389 985.409C933.389 986.346 933.772 987.027 934.539 987.581C935.306 988.092 936.285 988.476 937.435 988.646C938.585 988.817 939.82 989.115 941.225 989.541C942.588 989.967 943.866 990.435 944.973 990.989C946.123 991.543 947.06 992.48 947.826 993.843C948.55 995.249 948.933 996.953 948.891 998.955Z" fill="#2B4284"/>
<path d="M959.282 934.207L952.852 950.266" stroke="white" stroke-miterlimit="10" stroke-linecap="round"/>
<path d="M995.311 1018.98L979.256 1012.54" stroke="white" stroke-miterlimit="10" stroke-linecap="round"/>
<path d="M890.589 976.676L874.533 970.244" stroke="white" stroke-miterlimit="10" stroke-linecap="round"/>
<path d="M909.455 934.675L916.269 950.607" stroke="white" stroke-miterlimit="10" stroke-linecap="round"/>
<path d="M994.843 969.136L978.915 975.952" stroke="white" stroke-miterlimit="10" stroke-linecap="round"/>
<path d="M890.929 1013.27L875.002 1020.08" stroke="white" stroke-miterlimit="10" stroke-linecap="round"/>
<path d="M935.135 1188.13C935.135 1188.13 936.966 1141.74 891.483 1114.65C858.137 1098.72 830.498 1099.48 822.236 1101.15C819.255 1101.74 816.572 1104.64 817.509 1107.54C821.427 1119.42 865.803 1207.55 935.135 1188.13Z" stroke="white" stroke-miterlimit="10"/>
<path d="M1001.53 1499.13H885.265L845.233 1332.28H1030.19L1001.53 1499.13Z" fill="#D13981"/>
<path d="M1047.27 1340.93H829.774C820.49 1340.93 812.27 1334.84 809.545 1325.98L803.455 1306.13C799.281 1292.49 809.46 1278.74 823.684 1278.74H1052.46C1066.35 1278.74 1076.48 1291.86 1072.95 1305.32L1067.71 1325.17C1065.28 1334.45 1056.85 1340.93 1047.27 1340.93Z" fill="#2B4284"/>
<path d="M1075.21 442.716H930.025C925.212 442.716 921.252 438.755 921.252 433.941V405.529C921.252 400.673 925.212 396.711 930.025 396.711H1075.21C1080.02 396.711 1083.98 400.673 1083.98 405.529V433.941C1084.02 438.755 1080.06 442.716 1075.21 442.716Z" stroke="#455A64" stroke-miterlimit="10"/>
<path d="M941.012 440.544C941.012 501.245 968.396 550.445 1002.17 550.445C1035.94 550.445 1063.32 501.245 1063.32 440.544" stroke="#455A64" stroke-miterlimit="10"/>
<path d="M1043.31 614.129H960.986C959.069 614.129 957.494 612.553 957.494 610.636V599.347C957.494 597.431 959.069 595.854 960.986 595.854H1043.31C1045.22 595.854 1046.8 597.431 1046.8 599.347V610.636C1046.8 612.553 1045.22 614.129 1043.31 614.129Z" stroke="#455A64" stroke-miterlimit="10"/>
<path d="M1062.3 453.153C1085.17 455.027 1104.08 452.258 1102.21 475.133C1100.29 498.008 1055.62 538.603 1032.75 536.729" stroke="#455A64" stroke-miterlimit="10"/>
<path d="M942.077 453.153C919.208 455.027 900.299 452.258 902.172 475.133C904.089 498.008 947.826 536.346 970.696 534.471" stroke="#455A64" stroke-miterlimit="10"/>
<path d="M994.758 595.854V549.594" stroke="#455A64" stroke-miterlimit="10"/>
<path d="M1009.58 595.854V549.594" stroke="#455A64" stroke-miterlimit="10"/>
<path d="M957.494 460.011C957.494 460.011 969.546 504.951 971.76 507.763" stroke="#455A64" stroke-miterlimit="10" stroke-linecap="round"/>
<path d="M1203.86 182.36H472.976V198.718H1203.86V182.36Z" fill="#D13981"/>
<path d="M416.803 689.313C416.803 689.313 441.206 712.785 439.247 715.766C418.805 747.246 286.401 754.871 264.894 742.006C243.345 729.142 232.315 692.806 232.315 692.806C232.315 692.806 287.295 680.24 338.144 676.364C374.514 673.595 416.079 689.186 416.803 689.313Z" fill="#FCD9D2"/>
<path d="M413.013 728.332C413.013 728.332 470.591 715.724 490.352 635.981C493.503 618.601 480.088 608.25 480.088 608.25C480.088 608.25 399.513 670.741 394.786 682.753C390.058 694.723 413.013 728.332 413.013 728.332Z" fill="#FCD9D2"/>
<path d="M480.088 608.25C480.088 608.25 494.313 576.345 503.767 576.941C513.221 577.58 492.481 595.13 490.82 608.25C489.159 621.327 480.088 630.486 480.088 630.486" fill="#FCD9D2"/>
<path d="M149.823 675.597C149.823 675.597 172.692 706.693 158.894 715.766C145.095 724.839 134.023 728.375 134.023 728.375C134.023 728.375 189.259 766.287 217.281 739.408C245.304 712.571 220.646 696.981 220.646 696.981C220.646 696.981 214.257 702.518 194.795 696.384C181.678 692.252 169.924 668.312 169.924 668.312L149.823 675.597Z" fill="#FFCDC5"/>
<path d="M213.022 1457.69C213.022 1457.69 217.409 1499.48 195.732 1498.58C174.097 1497.73 165.878 1457.69 165.878 1457.69H213.022Z" fill="#FCD9D2"/>
<path d="M217.026 1474.73L220.56 1495.85C220.816 1497.3 219.709 1498.62 218.218 1498.62H171.074L158.17 1497.98C156.466 1497.9 155.402 1496.11 156.168 1494.58L165.878 1474.73H217.026Z" fill="#2B4284"/>
<path d="M220.731 966.453L266.768 1462.63L332.31 1461.22L334.567 964.025L220.731 966.453Z" fill="#2B4284"/>
<path d="M126.825 973.183L155.018 1465.35L220.56 1466.08L273.241 962.704L126.825 973.183Z" fill="#2B4284"/>
<path d="M204.292 1062.43L198.415 1449.08" stroke="#455A64" stroke-miterlimit="10"/>
<path d="M484.134 624.139L477.618 633.766C470.762 643.947 473.445 657.876 483.58 664.777L488.223 667.887C498.401 674.787 512.327 672.061 519.226 661.923L525.742 652.296L484.134 624.139Z" fill="#2B4284"/>
<path d="M542.394 535.707L541.159 536.133L483.368 620.987L528.51 651.742L586.301 566.888L586.216 565.567L542.394 535.707Z" fill="#2B4284"/>
<path d="M583.278 522.757L575.314 525.27L583.831 530.765L583.278 522.757Z" fill="#2B4284"/>
<path d="M575.314 525.27L542.394 535.706L586.216 565.567L583.831 530.765L575.314 525.27Z" fill="#D13981"/>
<path d="M528.042 657.663L477.107 625.119C475.659 624.224 475.276 622.307 476.17 620.859L478.385 617.409C479.279 615.96 481.196 615.577 482.644 616.471L533.578 649.016C535.026 649.91 535.452 651.827 534.515 653.276L532.3 656.726C531.406 658.174 529.49 658.6 528.042 657.663Z" fill="#EF4193"/>
<path opacity="0.44" d="M543.331 547.677L495.973 617.835" stroke="white" stroke-miterlimit="10" stroke-linecap="round"/>
<path opacity="0.44" d="M553.892 554.407L506.535 624.565" stroke="white" stroke-miterlimit="10" stroke-linecap="round"/>
<path opacity="0.44" d="M564.454 561.137L517.097 631.295" stroke="white" stroke-miterlimit="10" stroke-linecap="round"/>
<path opacity="0.44" d="M575.016 567.868L527.659 638.026" stroke="white" stroke-miterlimit="10" stroke-linecap="round"/>
<path d="M228.013 1457.69H151.015" stroke="#D13981" stroke-width="4" stroke-miterlimit="10"/>
<path d="M322.643 1457.69C322.643 1457.69 327.029 1499.48 305.352 1498.58C283.718 1497.73 275.498 1457.69 275.498 1457.69H322.643Z" fill="#FCD9D2"/>
<path d="M339.124 1457.69H253.608" stroke="#D13981" stroke-width="4" stroke-miterlimit="10"/>
<path d="M327.029 1476.39L366.039 1487.85C367.104 1488.14 368.041 1488.78 368.722 1489.64C371.661 1493.21 369.105 1498.62 364.463 1498.62H320.982H286.614C283.59 1498.62 281.12 1496.15 281.12 1493.13V1481.67C281.12 1478.65 283.59 1476.17 286.614 1476.17H325.496C326.007 1476.17 326.518 1476.22 327.029 1476.39Z" fill="#2B4284"/>
<path d="M153.357 718.066C153.357 718.066 98.2919 737.959 95.1404 748.992C91.9889 760.025 86.2822 1029.88 124.185 1061.45C147.864 1070.9 332.991 1039.68 347.215 993.119C361.44 946.56 280.055 703.541 232.315 692.764C209.488 687.609 206.251 699.11 206.251 699.11C206.251 699.11 211.787 720.409 193.645 731.485C175.46 742.56 153.357 718.066 153.357 718.066Z" fill="#D13981"/>
<path d="M232.315 692.764C232.315 692.764 282.823 658.26 333.332 669.42C343.596 672.7 339.976 762.112 324.985 759.77C309.994 757.384 280.949 753.763 280.949 753.763L232.315 692.764Z" fill="#D13981"/>
<path d="M162.94 579.369C162.94 579.369 182.317 596.323 200.928 612.169C205.74 616.088 199.778 624.096 192.751 624.096C185.724 624.096 212.171 655.533 209.275 663.03C206.379 670.528 154.635 689.697 132.277 663.03C109.918 636.364 96.3328 621.881 105.958 603.905C115.582 585.929 145.99 558.581 162.94 579.369Z" fill="#FCD9D2"/>
<path d="M121.161 715.724C131.382 714.829 151.526 693.658 143.222 671.167C138.452 658.26 135.385 648.718 133.682 642.924C132.447 638.75 129.721 635.172 126.059 632.744C119.543 628.399 110.046 621.157 111.664 616.642C118.947 596.323 122.865 625.843 132.915 621.029C143.009 616.216 131.936 618.857 131.467 604.374C130.956 589.891 127.89 591.296 127.89 591.296C127.89 591.296 164.302 579.88 174.779 564.034C191.005 539.498 179.421 518.625 155.913 517.56C133.128 516.538 108.555 557.815 102.423 561.563C96.2902 565.354 88.8374 544.269 67.7992 578.474C46.761 612.68 53.788 642.924 80.4903 655.193C99.3139 663.84 98.4622 688.078 105.915 702.561C113.41 717.002 121.161 715.724 121.161 715.724Z" fill="#263238"/>
<path d="M58.8559 944.643C58.8559 944.643 5.1957 945.324 8.00647 921.512C8.47493 917.551 35.2624 840.023 59.5373 803.688C75.3372 780.046 134.662 796.446 134.662 796.446C134.662 796.446 144.712 811.142 92.8407 897.317C71.4618 932.801 59.3669 944.004 58.8559 944.643Z" fill="#FCD9D2"/>
<path d="M8.34717 927.519C8.34717 927.519 19.7606 987.027 75.8057 1054.5C91.3501 1067.11 83.8973 1047.6 83.8973 1047.6C83.8973 1047.6 66.7771 951.416 57.4505 940.17C48.1238 928.924 8.34717 927.519 8.34717 927.519Z" fill="#FCD9D2"/>
<path d="M61.7944 1035.46C61.7944 1035.46 65.9254 1049.48 78.0202 1058.25C90.1151 1067.07 87.4321 1093.1 96.5032 1087.26C113.453 1076.4 83.8547 1047.56 83.8547 1047.56L61.7944 1035.46Z" fill="#FCD9D2"/>
<path d="M125.037 742.901C106.256 731.527 79.1275 756.617 49.5718 800.195C37.8602 829.544 83.4714 841.94 108.598 846.456C117.712 848.074 126.825 843.687 131.212 835.508L137.643 823.538C137.6 823.538 160.129 764.157 125.037 742.901Z" fill="#D13981"/>
<path d="M1301.56 292.858C1301.56 326.979 1273.92 354.624 1239.81 354.624C1205.69 354.624 1178.05 326.979 1178.05 292.858C1178.05 258.737 1205.69 231.092 1239.81 231.092C1273.92 231.049 1301.56 258.695 1301.56 292.858Z" fill="#D13981"/>
<path d="M1239.81 323.188C1236.7 323.188 1234.14 321.015 1233.46 318.118H1224.94C1219.79 318.118 1215.57 313.901 1215.57 308.747L1215.66 308.278L1219.11 298.779C1219.36 298.14 1219.49 297.416 1219.58 296.564C1221.24 277.438 1231.08 272.241 1236.36 270.835V265.511C1236.36 263.849 1237.72 262.486 1239.38 262.486H1240.96C1242.62 262.486 1243.98 263.849 1243.98 265.511V270.409C1255.69 272.369 1258.67 288.769 1259.65 294.264C1260.29 297.629 1260.97 300.355 1261.87 302.826L1263.95 308.747C1263.95 313.901 1259.74 318.118 1254.58 318.118H1246.07C1245.47 321.015 1242.87 323.188 1239.81 323.188ZM1218.47 309.003C1218.6 312.496 1221.45 315.264 1224.99 315.264H1236.19V316.67C1236.19 318.672 1237.8 320.291 1239.81 320.291C1241.81 320.291 1243.43 318.672 1243.43 316.67V315.264H1254.63C1258.12 315.264 1261.01 312.496 1261.1 309.003L1259.23 303.806C1258.29 301.165 1257.52 298.311 1256.88 294.775C1255.22 285.787 1251.94 273.774 1242.49 273.093L1241.17 273.008V265.511L1239.42 265.34L1239.25 273.135L1238.1 273.348C1233.93 274.158 1224.09 278.077 1222.47 296.777C1222.39 297.885 1222.17 298.822 1221.83 299.716L1218.47 309.003Z" fill="#ECF3FF"/>
<path d="M1194.66 821.493H502.617C503.128 821.451 503.128 821.451 502.617 821.493C514.456 822.26 522.292 831.972 522.292 843.729C522.292 855.486 510.283 861.279 498.443 862.089C498.955 862.131 507.728 864.474 508.239 864.474L1194.66 865.965C1207.18 865.965 1217.45 855.955 1217.45 843.729C1217.45 831.504 1207.18 821.493 1194.66 821.493Z" fill="#FCD9D2"/>
<path d="M1326.22 133.756V146.919" stroke="#ECF3FF" stroke-miterlimit="10" stroke-linecap="round"/>
<path d="M1326.22 158.292V171.455" stroke="#ECF3FF" stroke-miterlimit="10" stroke-linecap="round"/>
<path d="M1345.04 152.584H1331.92" stroke="#ECF3FF" stroke-miterlimit="10" stroke-linecap="round"/>
<path d="M1320.51 152.584H1307.39" stroke="#ECF3FF" stroke-miterlimit="10" stroke-linecap="round"/>
<path d="M384.607 205.107C383.543 205.107 382.648 204.255 382.648 203.148V190.028C382.648 188.963 383.543 188.068 384.607 188.068C385.672 188.068 386.566 188.92 386.566 190.028V203.148C386.566 204.213 385.672 205.107 384.607 205.107Z" fill="white"/>
<path d="M384.607 229.643C383.543 229.643 382.648 228.791 382.648 227.684V214.564C382.648 213.499 383.543 212.604 384.607 212.604C385.672 212.604 386.566 213.456 386.566 214.564V227.684C386.566 228.791 385.672 229.643 384.607 229.643Z" fill="white"/>
<path d="M403.431 210.815H390.314C389.249 210.815 388.355 209.963 388.355 208.856C388.355 207.791 389.207 206.896 390.314 206.896H403.431C404.496 206.896 405.39 207.748 405.39 208.856C405.39 209.921 404.538 210.815 403.431 210.815Z" fill="white"/>
<path d="M378.901 210.815H365.784C364.719 210.815 363.825 209.963 363.825 208.856C363.825 207.791 364.676 206.896 365.784 206.896H378.901C379.965 206.896 380.86 207.748 380.86 208.856C380.86 209.921 379.965 210.815 378.901 210.815Z" fill="white"/>
<path d="M1369.19 816.893C1365.31 797.085 1421.82 708.184 1458.88 752.826C1472.67 769.482 1471.1 777.235 1439.5 822.942C1435.84 828.224 1404.92 854.379 1401.38 849.011C1401.43 849.011 1372.64 834.528 1369.19 816.893Z" fill="#2B4284"/>
<path d="M1380.94 865.667C1377.49 883.728 1381.32 904.047 1399.64 902.684C1405.3 902.258 1410.67 900.299 1415.01 895.698C1417.91 892.631 1452.1 806.456 1447.29 776.979C1443.46 753.508 1433.2 758.449 1417.61 769.141C1417.61 769.141 1392.23 796.233 1382.22 858.468C1381.75 861.152 1381.32 863.537 1380.94 865.667Z" fill="#FFCDC5"/>
<path d="M1407.34 904.175C1407.34 904.175 1310.54 896.934 1260.76 841.174C1242.28 817.915 1271.11 829.289 1271.11 829.289C1271.11 829.289 1376.6 854.464 1398.02 857.872C1445.5 865.326 1407.34 904.175 1407.34 904.175Z" fill="#FFCDC5"/>
<path d="M1295.04 865.326C1295.04 865.326 1272.26 848.117 1268.13 847.648C1247.94 845.306 1215.83 832.398 1224.52 818.938C1240.7 793.848 1277.16 832.441 1277.16 832.441L1295.04 865.326Z" fill="#FFCDC5"/>
<path d="M1418.89 709.547C1418.89 709.547 1419.57 735.83 1415.31 753.252C1409.56 776.724 1480.68 753.252 1480.68 753.252L1457.39 670.059L1414.76 666.353L1418.89 709.547Z" fill="#FFCDC5"/>
<path d="M1372.47 607.143C1372.47 607.143 1388.44 625.332 1384.39 637.004C1381.45 645.523 1376.68 655.874 1376.89 662.264C1376.98 664.735 1378.94 666.779 1381.41 666.95C1389.93 667.546 1392.82 664.905 1392.82 664.905C1392.82 664.905 1392.48 700.517 1405.3 706.139C1444.44 723.264 1469.65 651.061 1483.79 603.82C1497.93 556.58 1428.47 546.867 1404.66 546.314C1380.77 545.76 1372.47 607.143 1372.47 607.143Z" fill="#FCD9D2"/>
<path d="M1381.88 609.954C1388.14 606.376 1403.55 577.324 1414.37 590.189C1436.73 616.727 1431.58 607.526 1441.59 598.794C1448.57 592.745 1450.95 620.689 1444.4 623.713C1437.84 626.738 1464.24 659.367 1464.24 659.367C1464.24 659.367 1476.17 642.499 1484.73 615.151C1501.63 561.137 1476.25 533.023 1442.39 524.12C1422.93 519.008 1388.31 530.936 1371.23 556.366C1354.32 581.542 1352.83 626.61 1381.88 609.954Z" fill="#2B4284"/>
<path d="M1493.88 560.669L1487.28 565.184C1486.26 565.866 1484.85 565.61 1484.17 564.588L1469.01 542.352C1468.33 541.329 1468.59 539.924 1469.61 539.242L1476.21 534.727C1477.23 534.045 1478.64 534.301 1479.32 535.323L1494.52 557.559C1495.16 558.581 1494.9 559.945 1493.88 560.669Z" fill="#D13981"/>
<path d="M1476.42 534.557C1476.42 534.557 1482.68 512.747 1500.23 506.826C1539.37 493.706 1609.89 500.393 1585.1 586.909C1560.32 673.424 1540.6 692.466 1555.76 713.466C1570.92 734.467 1536.13 737.065 1523.52 723.86C1519.82 719.984 1507.08 715.894 1507.13 704.861C1507.13 694.638 1495.33 698.429 1492.73 694.638C1486.64 685.863 1501.25 653.446 1491.75 650.933C1482.26 648.462 1494.82 626.695 1495.29 603.778C1495.71 580.86 1497.55 587.846 1492.31 576.558C1487.03 565.355 1476.42 534.557 1476.42 534.557Z" fill="#2B4284"/>
<path d="M1422.25 629.634C1422.25 637.174 1416.16 643.265 1408.62 643.265C1402.7 643.265 1397.68 639.517 1395.8 634.235C1395.29 632.786 1394.99 631.253 1394.99 629.634C1394.99 622.094 1401.08 616.003 1408.62 616.003C1416.12 616.003 1422.25 622.094 1422.25 629.634Z" stroke="#2B4284" stroke-miterlimit="10"/>
<path d="M1384.39 631.892H1394.19" stroke="#2B4284" stroke-miterlimit="10" stroke-linecap="round"/>
<path d="M1182.17 924.472L1041.19 946.64L1044.81 969.701L1185.79 947.533L1182.17 924.472Z" fill="#D13981"/>
<path d="M1273.58 926.582L1220.3 982.896C1208.76 995.078 1189.55 995.59 1177.37 984.088L1077.25 889.309L1172.26 788.864L1272.39 883.643C1284.61 895.187 1285.12 914.399 1273.58 926.582Z" fill="#2B4284"/>
<path d="M1189.17 797.596L1086.45 906.177C1081.64 911.246 1073.67 911.459 1068.6 906.646C1063.54 901.832 1063.32 893.867 1068.14 888.797L1170.86 780.216C1175.67 775.147 1183.63 774.934 1188.7 779.748C1193.73 784.519 1193.94 792.527 1189.17 797.596Z" fill="#D13981"/>
<path d="M1204.71 818.938L1221.62 801.047L1275.79 852.334L1258.88 870.225" stroke="#EF4193" stroke-width="2" stroke-miterlimit="10"/>
<path d="M1023.97 928.797L1031.64 993.417C1031.98 996.143 1035.09 997.336 1037.13 995.845L1029.08 925.304C1026.66 924.026 1023.63 925.943 1023.97 928.797Z" fill="#ECF3FF"/>
<path d="M1047.74 945.537L1029.51 925.559C1029.38 925.474 1029.21 925.431 1029.08 925.346L1037.13 995.888C1037.35 995.717 1037.56 995.547 1037.77 995.334L1051.06 966.538C1048.97 961 1047.74 945.537 1047.74 945.537Z" fill="#D13981"/>
<path d="M1392.57 1468.68L1393.08 1476.9L1446.06 1475.88L1445.25 1468.04L1392.57 1468.68Z" fill="#54293A"/>
<path d="M1427.45 1460.63L1425.7 1453.22C1420.72 1453.85 1411.99 1455 1405.09 1456.03C1405.68 1460.5 1406.45 1464.08 1407.3 1464.16C1409.6 1464.38 1427.45 1460.63 1427.45 1460.63Z" fill="#FCD9D2"/>
<path d="M1442.01 1455.77C1439.75 1456.79 1437.45 1457.3 1435.28 1456.67C1432.6 1455.9 1430.9 1454.41 1429.7 1452.75H1429.66C1429.66 1452.75 1428.08 1452.96 1425.7 1453.26L1427.45 1460.67C1427.45 1460.67 1409.6 1464.42 1407.3 1464.21C1406.45 1464.12 1405.68 1460.5 1405.09 1456.07C1403.6 1456.28 1402.19 1456.5 1400.96 1456.71C1391.16 1458.24 1392.52 1468.72 1392.52 1468.72C1392.52 1468.72 1443.76 1471.53 1445.21 1468.08C1446.48 1465.06 1442.99 1457.69 1442.01 1455.77Z" fill="#D13981"/>
<path d="M1463.56 1435.54L1468.84 1453.26L1484.26 1468.64L1481.11 1456.32L1477.78 1433.88L1472.84 1412.02L1463.56 1435.54Z" fill="#FCD9D2"/>
<path d="M1422.97 1422.76L1429.96 1461.56L1441.93 1458.45L1443.5 1426.46L1422.97 1422.76Z" fill="#FCD9D2"/>
<path d="M1449.8 1299.86L1509.17 1091.09L1414.71 1070.48L1381.37 1229.15C1380.13 1242.14 1381.24 1255.22 1384.65 1267.79L1423.02 1422.76L1443.54 1426.46L1449.8 1299.86Z" fill="#D13981"/>
<path d="M1593.49 1031.46L1485.71 1283.04C1484.51 1285.81 1483.83 1288.79 1483.7 1291.81L1477.74 1433.88L1463.56 1435.49L1430.64 1263.1L1428.34 1253.39C1427.45 1249.64 1427.19 1245.77 1427.57 1241.89L1429.45 1223.78L1450.49 1070.39L1593.49 1031.46Z" fill="#D13981"/>
<path d="M1436.82 1470.81L1437.33 1479.03L1485.02 1476.47L1484.26 1468.64L1436.82 1470.81Z" fill="#54293A"/>
<path d="M1466.5 1461.14L1464.8 1453.73C1459.81 1454.37 1456.28 1457.22 1449.38 1458.2C1449.97 1462.67 1450.7 1466.29 1451.55 1466.38C1453.85 1466.59 1466.5 1461.14 1466.5 1461.14Z" fill="#FCD9D2"/>
<path d="M1481.11 1456.32C1478.85 1457.35 1476.55 1457.82 1474.38 1457.22C1471.69 1456.45 1469.99 1454.92 1468.84 1453.26H1468.8C1468.8 1453.26 1467.18 1453.43 1464.84 1453.77L1466.54 1461.18C1466.54 1461.18 1453.89 1466.63 1451.64 1466.42C1450.78 1466.34 1450.02 1462.71 1449.46 1458.24C1447.97 1458.45 1446.57 1458.67 1445.33 1458.84C1435.54 1460.33 1436.86 1470.81 1436.86 1470.81C1436.86 1470.81 1482.85 1472.09 1484.3 1468.64C1485.54 1465.61 1482.04 1458.24 1481.11 1456.32Z" fill="#D13981"/>
<path d="M1414.71 1070.48C1414.71 1070.48 1566.96 1156.52 1593.49 1031.46C1608.7 959.978 1573.39 884.751 1547.5 825.498C1532.81 791.888 1516.5 766.884 1509.13 757.171C1496.14 740.09 1488.52 731.783 1476.38 738.13C1459 747.161 1437.45 766.032 1424.59 763.348C1411.9 760.707 1416.84 745.968 1416.84 745.968C1415.82 745.67 1401.47 780.77 1393.25 798.917C1380.81 826.307 1376.6 830.226 1387.97 839.938C1399.68 849.949 1441.46 851.056 1440.56 936.038C1440.22 973.993 1441.71 980.808 1414.71 1070.48Z" fill="#2B4284"/>
<path d="M1369.02 889.863C1369.02 889.863 1378.6 924.154 1400.66 912.013C1404.32 909.969 1485.66 877.296 1501.51 786.18C1505.59 762.752 1474.51 765.18 1456.41 770.632C1444.69 774.168 1450.78 771.569 1448.74 775.999C1447.5 778.683 1450.23 787.416 1421.87 843.73C1410.07 867.073 1369.44 889.138 1369.02 889.863Z" fill="#FCD9D2"/>
<path d="M1424.64 896.934C1424.64 896.934 1364.5 954.824 1285.67 946.304C1256.2 942.428 1284.86 930.543 1284.86 930.543C1284.86 930.543 1372.42 883.643 1422.21 870.225C1443.16 864.56 1424.64 896.934 1424.64 896.934Z" fill="#FCD9D2"/>
<path d="M1320.51 941.959C1320.51 941.959 1292.15 945.239 1288.82 947.753C1272.64 960.021 1240.44 972.8 1237.46 957.124C1231.84 927.774 1284.86 930.543 1284.86 930.543L1320.51 941.959Z" fill="#FCD9D2"/>
<path d="M1421.87 821.494C1432.22 761.005 1476.85 722.795 1499.25 742.22C1515.6 756.362 1516.03 782.133 1510.49 821.494C1507.47 842.835 1494.95 862.132 1490.13 857.829C1490.13 857.829 1420.55 829.204 1421.87 821.494Z" fill="#2B4284"/>
<path d="M1265.19 825.285C1265.19 825.285 1238.7 821.707 1243.89 829.332C1249.09 836.956 1274.86 834.358 1274.86 834.358L1265.19 825.285Z" fill="#FFCDC5"/>
<path d="M561.388 439.308C561.388 407.19 587.409 381.205 619.477 381.205C651.588 381.205 677.566 407.232 677.566 439.308C677.566 471.427 651.545 497.411 619.477 497.411C587.409 497.411 561.388 471.384 561.388 439.308Z" stroke="#455A64" stroke-miterlimit="10"/>
<path d="M573.696 439.308C573.696 414.006 594.18 393.516 619.477 393.516C644.774 393.516 665.259 414.006 665.259 439.308C665.259 464.611 644.774 485.101 619.477 485.101C594.223 485.101 573.696 464.569 573.696 439.308Z" stroke="#455A64" stroke-miterlimit="10"/>
<path d="M609.426 439.308C609.426 433.728 613.941 429.255 619.477 429.255C625.056 429.255 629.528 433.771 629.528 439.308C629.528 444.846 625.013 449.361 619.477 449.361C613.941 449.361 609.426 444.846 609.426 439.308Z" stroke="#455A64" stroke-miterlimit="10"/>
<path d="M619.477 395.305L619.136 405.869" stroke="#455A64" stroke-miterlimit="10" stroke-linecap="round"/>
<path d="M619.136 428.915V415.582" stroke="#455A64" stroke-miterlimit="10" stroke-linecap="round"/>
<path d="M626.93 447.402L639.919 460.394" stroke="#455A64" stroke-miterlimit="10" stroke-linecap="round"/>
<path d="M652.269 471.427L646.435 465.591" stroke="#455A64" stroke-miterlimit="10" stroke-linecap="round"/>
</g>
<defs>
<clipPath id="clip0_50_6250">
<rect width="1640" height="1533" fill="white"/>
</clipPath>
</defs>
</svg>
