<svg width="2712" height="2792" viewBox="0 0 2712 2792" fill="none" xmlns="http://www.w3.org/2000/svg">
<g clip-path="url(#clip0_74_2)">
<path opacity="0.22" d="M2360.36 2305.03C2305.55 2362.73 2253.69 2399.94 2212.71 2429.34C1731.06 2774.93 1161.13 2674.19 1040.01 2649.59C861.15 2613.26 515.41 2543.04 265.44 2249.09C-112.73 1804.37 -53.8502 1103.71 239.49 641.2C293.15 556.6 576.57 87.04 1152.64 11.74C1501.27 -33.83 1907.65 58.08 2201.95 304.64C2819.7 822.21 2775.72 1867.75 2360.36 2305.03Z" fill="#2B4284" stroke="black" stroke-miterlimit="10"/>
<path opacity="0.44" d="M2511.5 687.45C2507.78 671.89 2485.62 671.66 2481.65 687.16C2443.23 836.99 2330.19 1226.72 2147.44 1436.3C1849.89 1777.54 1659.1 2325.07 1860.86 2601.88C1860.86 2601.88 2917.08 2382.83 2511.5 687.45Z" fill="#2B4284" stroke="black" stroke-miterlimit="10"/>
<path opacity="0.43" d="M2486.9 900.56C2486.63 905.44 2486.02 909.44 2485.56 913.77L2483.91 926.51L2480.33 951.93C2477.83 968.85 2475.07 985.73 2472.31 1002.61C2466.67 1036.35 2460.61 1070.01 2454.24 1103.62C2441.38 1170.82 2426.7 1237.66 2411.02 1304.26C2395.43 1370.89 2377.98 1437.09 2359.13 1502.89C2340.22 1568.67 2320.38 1634.21 2298.39 1699.06C2254.67 1828.82 2203.86 1956.33 2144.24 2079.73C2113.79 2141.11 2081.71 2201.72 2046.19 2260.34C2010.26 2318.68 1971.83 2375.53 1929.43 2429.32C1928.51 2430.49 1926.81 2430.69 1925.64 2429.77C1924.5 2428.87 1924.28 2427.24 1925.12 2426.07L1925.14 2426.04C1965.27 2370.85 2002.37 2313.6 2036.58 2254.65C2070.96 2195.79 2101.88 2134.98 2131.17 2073.46C2160.44 2011.91 2187.22 1949.18 2212.58 1885.9C2237.91 1822.59 2260.61 1758.27 2282.94 1693.83C2327.06 1564.74 2364.27 1433.34 2397.85 1301.04C2414.5 1234.85 2429.81 1168.32 2443.94 1101.53C2451.06 1068.15 2457.87 1034.7 2464.26 1001.16L2473.46 950.8L2477.8 925.58L2479.83 912.96C2480.43 908.82 2481.14 904.37 2481.51 900.72L2481.57 900.12C2481.72 898.65 2483.03 897.58 2484.5 897.73C2485.93 897.9 2486.98 899.14 2486.9 900.56Z" fill="white"/>
<path opacity="0.44" d="M1987.94 360.92C1980.28 347.67 1959.9 353.5 1960.48 368.8C1966.12 516.68 1968.77 904.92 1858.36 1146.97C1678.59 1541.08 1652.99 2095.23 1913.52 2294.05C1913.53 2294.04 2822.39 1805.02 1987.94 360.92Z" fill="#2B4284" stroke="black" stroke-miterlimit="10"/>
<path opacity="0.43" d="M2023.57 563.05C2024.66 567.6 2025.19 571.43 2025.95 575.53L2027.92 587.67L2031.58 611.96C2033.91 628.16 2035.99 644.39 2038.06 660.63C2042.1 693.11 2045.73 725.63 2049.07 758.19C2055.62 823.32 2060.4 888.62 2064.19 953.98C2068.08 1019.34 2070.14 1084.81 2070.8 1150.29C2071.41 1215.77 2071.09 1281.29 2068.62 1346.76C2063.93 1477.69 2052.1 1608.49 2031.09 1737.92C2019.9 1802.51 2007.01 1866.85 1990.41 1930.3C1973.36 1993.61 1953.62 2056.22 1929.38 2117.11C1928.84 2118.46 1927.32 2119.12 1925.97 2118.58C1924.66 2118.06 1924 2116.59 1924.46 2115.27L1924.47 2115.24C1946.2 2053.67 1964.58 1991.05 1979.86 1927.66C1995.32 1864.3 2007.08 1800.11 2017.15 1735.7C2027.19 1671.27 2034.64 1606.45 2040.62 1541.5C2046.58 1476.54 2049.84 1411.36 2052.74 1346.18C2058 1215.76 2056.27 1085.11 2050.98 954.64C2048.2 889.4 2044.1 824.21 2038.84 759.11C2036.27 726.55 2033.4 694.02 2030.12 661.52L2024.83 612.83L2021.94 588.52L2020.36 576.39C2019.78 572.43 2019.22 568.15 2018.57 564.72L2018.46 564.14C2018.19 562.73 2019.12 561.36 2020.54 561.1C2021.93 560.83 2023.25 561.7 2023.57 563.05Z" fill="white"/>
<path d="M56.73 2514.14V1662.35C56.73 1550.44 146.67 1459.38 258.57 1458.16C594.43 1454.5 1287.12 1454.32 1853.88 1502.08C1931.22 1508.6 1991.38 1571.99 1994.18 1649.55L2047.15 2473.06C2051.09 2581.99 1964.97 2672.99 1855.99 2675.06L251.79 2705.54C144.67 2707.58 56.73 2621.29 56.73 2514.14Z" fill="#EF4193" stroke="black" stroke-miterlimit="10"/>
<path d="M251.26 1754.51C249.83 1826.99 251.98 1941.99 253.75 2016.28C254.67 2054.93 288.6 2084.39 327.01 2079.89L603.41 2047.5C640.23 2043.18 666.17 2009.25 660.68 1972.58L626.75 1746.25C621.93 1714.12 594.33 1690.35 561.84 1690.35H316.88C281.19 1690.35 251.96 1718.82 251.26 1754.51Z" fill="white"/>
<path opacity="0.37" d="M973.58 2183.43L1204.15 2208.3C1236.41 2211.78 1263.94 2185.18 1261.56 2152.81L1211.15 1466.94C1114.5 1463.87 1019.16 1461.64 927.17 1460.07V2131.74C927.18 2158.3 947.18 2180.58 973.58 2183.43Z" fill="white"/>
<path d="M1068.08 2064.56C1068.79 2076.9 1079.01 2086.41 1091.21 2086.41C1091.66 2086.41 1092.12 2086.39 1092.57 2086.36C1105.36 2085.62 1115.13 2074.66 1114.37 2061.87L1079.6 1463.27C1064.01 1462.88 1048.55 1462.54 1033.09 1462.19L1068.08 2064.56Z" fill="white"/>
<path d="M379.08 1970.56C375.03 1970.56 371.62 1967.42 371.36 1963.31L359.4 1774.77C359.13 1770.51 362.36 1766.84 366.63 1766.57C371.11 1766.22 374.56 1769.54 374.83 1773.8L386.79 1962.34C387.06 1966.6 383.83 1970.27 379.56 1970.54C379.4 1970.56 379.23 1970.56 379.08 1970.56Z" fill="#00303A" stroke="black" stroke-miterlimit="10"/>
<path d="M403.69 1970.56C399.54 1970.56 396.09 1967.27 395.96 1963.09L389.69 1770.94C389.55 1766.67 392.91 1763.09 397.16 1762.95C402.08 1762.71 405 1766.17 405.15 1770.42L411.42 1962.57C411.56 1966.84 408.2 1970.42 403.95 1970.56C403.95 1970.56 403.77 1970.56 403.69 1970.56Z" fill="#00303A" stroke="black" stroke-miterlimit="10"/>
<path d="M436.7 1970.56C432.59 1970.56 429.18 1967.34 428.98 1963.19C427.47 1931.6 419.95 1773.86 419.95 1770.68C419.95 1766.41 423.41 1762.95 427.68 1762.95C431.92 1762.95 435.38 1766.38 435.41 1770.61C435.5 1774.81 441.34 1897.93 444.41 1962.47C444.62 1966.73 441.33 1970.35 437.06 1970.55C436.94 1970.56 436.82 1970.56 436.7 1970.56Z" fill="#00303A"/>
<path d="M435.42 1770.68H435.57M436.7 1970.56C432.59 1970.56 429.18 1967.34 428.98 1963.19C427.47 1931.6 419.95 1773.86 419.95 1770.68C419.95 1766.41 423.41 1762.95 427.68 1762.95C431.92 1762.95 435.38 1766.38 435.41 1770.61C435.5 1774.81 441.34 1897.93 444.41 1962.47C444.62 1966.73 441.33 1970.35 437.06 1970.55C436.94 1970.56 436.82 1970.56 436.7 1970.56Z" stroke="black" stroke-miterlimit="10"/>
<path d="M488.23 1978.29C479.94 1978.29 473.08 1971.72 472.8 1963.37C466.26 1777.2 467.41 1773 468.16 1770.22C470.4 1761.96 478.97 1757.12 487.14 1759.36C494.71 1761.43 499.43 1768.77 498.4 1776.33C497.9 1787.52 501.36 1895.84 503.68 1962.28C503.98 1970.81 497.31 1977.98 488.78 1978.27C488.61 1978.29 488.42 1978.29 488.23 1978.29Z" fill="#00303A" stroke="black" stroke-miterlimit="10"/>
<path d="M521.74 1970.56C517.47 1970.56 514.01 1967.1 514.01 1962.83V1774.29C514.01 1770.02 517.47 1766.56 521.74 1766.56C526.01 1766.56 529.47 1770.02 529.47 1774.29V1962.83C529.47 1967.11 526.01 1970.56 521.74 1970.56Z" fill="#00303A" stroke="black" stroke-miterlimit="10"/>
<path d="M548.8 1970.56C544.6 1970.56 541.16 1967.21 541.07 1963.01C539.59 1897.5 536.13 1790.49 533.04 1777.62C531.68 1775.19 531.7 1772.11 533.33 1769.6C535.67 1766.01 540.46 1765.04 544.04 1767.38C548.25 1770.14 552.25 1772.76 556.54 1962.64C556.63 1966.91 553.25 1970.45 548.99 1970.55H548.8V1970.56Z" fill="#00303A" stroke="black" stroke-miterlimit="10"/>
<path d="M337.48 1987.73C329.31 1987.73 322.49 1981.33 322.05 1973.07L311.74 1775.09C311.3 1766.56 317.86 1759.3 326.39 1758.84C334.48 1758.27 342.18 1764.96 342.64 1773.49L352.95 1971.47C353.39 1980 346.84 1987.26 338.31 1987.72C338.03 1987.73 337.76 1987.73 337.48 1987.73Z" fill="#00303A" stroke="black" stroke-miterlimit="10"/>
<path d="M326 1347.54V749.35C326 670.76 389.16 606.81 467.75 605.95C703.62 603.38 1190.07 603.25 1588.1 636.79C1642.41 641.37 1684.66 685.89 1686.63 740.36L1723.83 1318.69C1726.6 1395.19 1666.12 1459.1 1589.58 1460.55L463 1481.96C387.76 1483.38 326 1422.79 326 1347.54Z" fill="#D13981" stroke="black" stroke-miterlimit="10"/>
<path d="M462.61 814.07C461.61 864.97 463.12 945.73 464.36 997.91C465 1025.05 488.84 1045.74 515.81 1042.58L709.92 1019.83C735.78 1016.8 754 992.97 750.14 967.22L726.3 808.27C722.92 785.71 703.53 769.01 680.72 769.01H508.69C483.63 769.01 463.1 789.01 462.61 814.07Z" fill="white"/>
<path opacity="0.37" d="M969.88 1115.29L1131.8 1132.76C1154.46 1135.21 1173.79 1116.52 1172.12 1093.79L1136.72 612.12C1068.84 609.97 1001.89 608.4 937.29 607.29V1078.99C937.29 1097.64 951.34 1113.29 969.88 1115.29Z" fill="white"/>
<path d="M1036.25 1031.81C1036.75 1040.47 1043.93 1047.15 1052.49 1047.15C1052.81 1047.15 1053.13 1047.14 1053.45 1047.12C1062.43 1046.6 1069.29 1038.9 1068.76 1029.92L1044.34 609.54C1033.39 609.27 1022.53 609.03 1011.68 608.78L1036.25 1031.81Z" fill="white"/>
<path d="M552.38 965.799C549.54 965.799 547.14 963.6 546.96 960.71L538.56 828.299C538.37 825.309 540.64 822.729 543.64 822.539C546.79 822.299 549.21 824.629 549.4 827.619L557.8 960.03C557.99 963.02 555.72 965.599 552.72 965.789C552.6 965.799 552.48 965.799 552.38 965.799Z" fill="#00303A" stroke="black" stroke-miterlimit="10"/>
<path d="M569.66 965.8C566.74 965.8 564.33 963.49 564.23 960.55L559.83 825.61C559.73 822.61 562.09 820.1 565.08 820C568.54 819.83 570.58 822.26 570.69 825.25L575.09 960.19C575.19 963.19 572.83 965.7 569.84 965.8C569.84 965.8 569.72 965.8 569.66 965.8Z" fill="#00303A" stroke="black" stroke-miterlimit="10"/>
<path d="M592.84 965.799C589.96 965.799 587.56 963.54 587.42 960.63C586.36 938.45 581.08 827.67 581.08 825.43C581.08 822.43 583.51 820 586.51 820C589.49 820 591.92 822.41 591.94 825.38C592 828.33 596.11 914.79 598.26 960.12C598.41 963.11 596.1 965.649 593.1 965.789C593.01 965.799 592.93 965.799 592.84 965.799Z" fill="#00303A"/>
<path d="M591.94 825.43H592.05M592.84 965.799C589.96 965.799 587.56 963.54 587.42 960.63C586.36 938.45 581.08 827.67 581.08 825.43C581.08 822.43 583.51 820 586.51 820C589.49 820 591.92 822.41 591.94 825.38C592 828.33 596.11 914.79 598.26 960.12C598.41 963.11 596.1 965.649 593.1 965.789C593.01 965.799 592.93 965.799 592.84 965.799Z" stroke="black" stroke-miterlimit="10"/>
<path d="M629.03 971.229C623.21 971.229 618.39 966.62 618.19 960.75C613.6 830.01 614.4 827.059 614.94 825.109C616.51 819.309 622.53 815.909 628.27 817.489C633.58 818.939 636.9 824.099 636.18 829.409C635.83 837.269 638.26 913.34 639.89 960C640.1 965.99 635.42 971.029 629.42 971.229C629.3 971.229 629.16 971.229 629.03 971.229Z" fill="#00303A" stroke="black" stroke-miterlimit="10"/>
<path d="M652.56 965.8C649.56 965.8 647.13 963.37 647.13 960.37V827.96C647.13 824.96 649.56 822.53 652.56 822.53C655.56 822.53 657.99 824.96 657.99 827.96V960.37C657.99 963.37 655.56 965.8 652.56 965.8Z" fill="#00303A" stroke="black" stroke-miterlimit="10"/>
<path d="M671.56 965.799C668.61 965.799 666.19 963.449 666.13 960.499C665.09 914.489 662.66 839.339 660.49 830.309C659.54 828.599 659.55 826.439 660.69 824.679C662.33 822.159 665.7 821.479 668.21 823.119C671.17 825.059 673.98 826.899 676.99 960.249C677.05 963.249 674.68 965.729 671.69 965.809H671.56V965.799Z" fill="#00303A" stroke="black" stroke-miterlimit="10"/>
<path d="M523.16 977.86C517.42 977.86 512.63 973.36 512.32 967.56L505.08 828.52C504.77 822.53 509.37 817.43 515.36 817.11C521.04 816.71 526.45 821.41 526.77 827.4L534.01 966.44C534.32 972.43 529.72 977.53 523.73 977.85C523.55 977.86 523.36 977.86 523.16 977.86Z" fill="#00303A" stroke="black" stroke-miterlimit="10"/>
<path d="M992.75 1443.33L953.14 1464.64C905.64 1493.56 863.14 1508.84 824.89 1514.58C705.46 1532.5 627.62 1457.14 569.61 1411.43C493.03 1351.08 433.43 1380.44 433.43 1380.44L515.1 1536.31C637.07 1651.31 762.12 1625.77 840.95 1588.5C891.14 1564.78 922.6 1536.31 922.6 1536.31C1012.32 1482.82 992.75 1443.33 992.75 1443.33Z" fill="url(#paint0_linear_74_2)"/>
<path d="M1109.42 1499.15C1106.86 1490.65 1100.58 1483.77 1092.34 1480.46L1011.96 1448.14C1011.96 1448.14 1010.75 1437.83 1028.94 1430.83C1047.14 1423.82 1042.88 1403.44 1042.88 1403.44C1042.88 1403.44 1018.02 1414.78 981.63 1432.77C960.82 1443.06 949.14 1461.22 942.95 1474.89L963.64 1502.1C1013.18 1516.98 1063.31 1519.83 1113.86 1513.92L1109.42 1499.15Z" fill="url(#paint1_linear_74_2)"/>
<path d="M415.88 2635.18C415.88 2635.18 409.76 2669.82 406.76 2704.11C405.59 2717.51 415.92 2729.15 429.36 2729.71C475.02 2731.61 572.69 2735.31 607.74 2733.75C613.01 2733.52 616.45 2728.12 614.5 2723.22C612.87 2719.11 609.71 2715.79 605.7 2713.95L444.36 2639.8L415.88 2635.18Z" fill="#2B4284" stroke="black" stroke-miterlimit="10"/>
<path d="M410.86 2614.82L415.78 2656.25C415.78 2656.25 444.04 2669.41 463.34 2654.59L451.64 2608.42L410.86 2614.82Z" fill="url(#paint2_linear_74_2)"/>
<path d="M402.97 1808.58C400.85 1819.8 406.78 2396.18 463.34 2642.02C464.26 2646.03 470.11 2653.91 468.09 2657.36C463.18 2665.75 427.04 2663.4 406.66 2664.11C400.35 2664.33 396.96 2656.92 395.18 2650.64C379.01 2593.6 301.54 2307.82 291.44 2034.82C280.15 1729.77 291.44 2024.43 291.44 2024.43L286.42 1831.17L402.97 1808.58Z" fill="#00303A" stroke="black" stroke-miterlimit="10"/>
<path d="M230.29 2653.25C230.29 2653.25 220.55 2670.74 211.12 2717.2C209.42 2725.59 215.28 2733.62 223.8 2734.46C238.88 2735.94 262.09 2737.85 280.68 2737.72C289.25 2737.66 295.94 2730.2 294.91 2721.69C292.85 2704.73 286.43 2676.9 266.61 2655.22L230.29 2653.25Z" fill="#2B4284" stroke="black" stroke-miterlimit="10"/>
<path d="M221.73 2599.96L233.22 2662.62C233.22 2662.62 244.58 2671.07 267.04 2664.94L261.56 2597.53L221.73 2599.96Z" fill="url(#paint3_linear_74_2)"/>
<path d="M194.12 1831.06C147.86 2122.45 200.73 2573.61 219.72 2657.53C220.88 2662.67 224.86 2666.6 229.84 2667.47C238.31 2668.94 252.27 2670.13 266.02 2665.96C270.76 2664.52 274.09 2660.06 274.28 2654.91C276.83 2587.06 272.24 2170.51 315.34 2005.88C317.52 1997.54 322.41 1990.26 329.16 1985.25L400.09 1927.44L401.41 1802.8L194.12 1831.06Z" fill="#00303A" stroke="black" stroke-miterlimit="10"/>
<path d="M459.16 1363.58C337.25 1361.57 202.73 1395.59 202.73 1395.59C172.78 1570.38 184.8 1764.08 191.04 1827.87C192.32 1840.95 185.32 1854.79 198.29 1856.89C262.08 1867.2 362.34 1856.71 393.5 1847.66C404.89 1844.35 402.95 1832.23 405.37 1820.62C426.29 1720.29 486.1 1499.02 486.1 1499.02C515.1 1536.32 556.01 1588.51 616.49 1602.41C585.67 1566.68 644.79 1491.75 638.48 1464.88C583.8 1403.43 496.76 1364.2 459.16 1363.58Z" fill="#2B4284" stroke="black" stroke-miterlimit="10"/>
<path d="M335.67 1264.61L296.88 1376.79C296.24 1378.65 297 1380.71 298.72 1381.66C309.29 1387.51 347.39 1404.4 393.3 1375.3C398.08 1372.27 401.34 1367.32 402.06 1361.71L414.62 1264.62H335.67V1264.61Z" fill="url(#paint4_linear_74_2)"/>
<path d="M420.08 1160.72C420.08 1160.72 462.68 1240.9 457.22 1273.29C451.76 1305.68 398.97 1303.35 352.87 1277.05L320.66 1190.47L420.08 1160.72Z" fill="url(#paint5_linear_74_2)"/>
<path d="M354.9 1234.54C356.77 1233.71 357.47 1231.42 356.34 1229.7C352.93 1224.49 346.53 1213.85 344.49 1204.54C344.49 1204.54 336.83 1199.64 363.98 1193.14C378.76 1189.6 404.97 1186.67 416.48 1176.05C429.37 1164.16 405.61 1141.69 395.61 1135.66C382.42 1127.7 366.37 1122.99 351.5 1127C344.32 1128.94 337.83 1132.77 331.44 1136.56C320.55 1143.02 309.28 1149.84 302.36 1160.43C297.88 1167.29 295.53 1175.29 293.38 1183.2C290.29 1194.56 287.46 1206.2 288 1217.96C289.43 1249.3 326.15 1277.37 355.69 1280.8C358.11 1281.08 359.98 1278.7 359.19 1276.4L347.12 1241.31C346.56 1239.68 347.34 1237.89 348.91 1237.19L354.9 1234.54Z" fill="#00303A" stroke="black" stroke-miterlimit="10"/>
<path d="M359.75 1239.52C359.75 1239.52 329.42 1218.71 327.21 1236.24C324.99 1253.76 354.52 1261.62 369.15 1255.09L359.75 1239.52Z" fill="url(#paint6_linear_74_2)"/>
<path d="M435.59 1141.06C373.36 1023.52 212.07 1130.3 287.13 1229.32C342.95 1192.21 406.01 1137.04 435.59 1141.06Z" fill="#2B4284" stroke="black" stroke-miterlimit="10"/>
<path d="M338.39 1190.85L450.13 1187.39C452.97 1187.3 455.56 1185.73 456.94 1183.25C466.95 1165.17 481.6 1153.66 499.91 1147.33C502.23 1146.53 501.75 1143.11 499.3 1142.95L430.79 1138.29C430.71 1138.28 430.64 1138.29 430.56 1138.29C396.42 1140.91 366.19 1161.46 337.36 1188.37C336.41 1189.27 337.08 1190.89 338.39 1190.85Z" fill="#2B4284" stroke="black" stroke-miterlimit="10"/>
<path d="M216.54 1573.52C284.77 1496.92 277.86 1437.94 200.85 1395.49C200.85 1395.49 73.1902 1482.23 52.2002 1592.2C76.3202 1593.98 120.21 1600.25 163.17 1621.94C172.61 1570.02 216.54 1573.52 216.54 1573.52Z" fill="#2B4284" stroke="black" stroke-miterlimit="10"/>
<path d="M364.82 1652.35C364.82 1652.35 221.5 1733.35 173.14 1664.19C163.1 1649.83 160.7 1635.56 163.17 1621.95C120.21 1600.26 76.32 1593.98 52.2 1592.21C45.87 1625.36 49.22 1660.62 68.7 1696.26C153.41 1851.22 383.79 1687.7 383.79 1687.7L364.82 1652.35Z" fill="url(#paint7_linear_74_2)"/>
<path d="M347.6 1754.83L425.82 1481.66C426.71 1478.56 429.35 1476.3 432.56 1475.92C446.73 1474.27 487.8 1469.62 535.21 1465.61C592.32 1460.78 658.65 1456.87 698.28 1460.19C703.91 1460.66 707.32 1466.62 704.81 1471.69C682.27 1517.29 589.56 1702.77 543.14 1763.53C541.6 1765.54 539.22 1766.72 536.69 1766.7L355.2 1765.01C349.93 1764.97 346.15 1759.9 347.6 1754.83Z" fill="#00303A" stroke="black" stroke-miterlimit="10"/>
<path opacity="0.44" d="M543.33 1441.93L600.04 1432.48C603.06 1431.98 605.53 1434.86 604.57 1437.77L598.96 1454.78C598.47 1456.26 597.18 1457.33 595.63 1457.54L541.06 1464.83C538.24 1465.21 535.91 1462.64 536.56 1459.87L540.04 1445.02C540.41 1443.42 541.71 1442.2 543.33 1441.93Z" fill="#2B4284" stroke="black" stroke-miterlimit="10"/>
<path opacity="0.44" d="M500.86 1489.95L505.53 1465.61C506 1463.17 508.01 1461.32 510.49 1461.07L625.04 1449.45C628.9 1449.06 631.98 1452.59 631.08 1456.36L623.8 1486.68C623.22 1489.11 621.11 1490.86 618.61 1490.98L506.68 1496.62C503.03 1496.81 500.17 1493.53 500.86 1489.95Z" fill="#2B4284" stroke="black" stroke-miterlimit="10"/>
<path d="M366.5 1688.83C366.5 1688.83 355.6 1644.02 360 1628.13C364.4 1612.23 372.91 1591.8 401.3 1596.34C429.69 1600.88 463.17 1612.84 463.17 1612.84C463.17 1612.84 461.48 1633.55 439.9 1626.87L453.28 1637.22C453.28 1637.22 451.37 1653.8 433.15 1644.94L445.59 1658.67C445.59 1658.67 437.76 1672.29 424.36 1663.55C410.95 1654.81 404.52 1694.22 366.5 1688.83Z" fill="url(#paint8_linear_74_2)"/>
<path d="M321.08 1518.27C312.13 1518.99 236.46 1521.42 236.46 1521.42L239.51 1597.6L278.71 1619.71L321.07 1597.6V1518.27H321.08Z" fill="#2B4284" stroke="black" stroke-miterlimit="10"/>
<path d="M327.09 1518.27L236.63 1521.41L232.93 1550.64L280.01 1562.87L330.05 1540.57L327.09 1518.27Z" fill="#2B4284" stroke="black" stroke-miterlimit="10"/>
<path d="M2680.14 2710.29C2680.14 2710.29 2692.03 2729.03 2695.02 2781.49C2695.3 2786.38 2691.43 2790.54 2686.53 2790.54H2593.55C2589.81 2790.54 2587.14 2786.87 2588.34 2783.33C2593.79 2767.2 2610.26 2727.89 2647.02 2705.43L2680.14 2710.29Z" fill="#00303A" stroke="black" stroke-miterlimit="10"/>
<path d="M2684.17 2674.74L2678.91 2718.83C2678.46 2722.63 2675.47 2725.68 2671.67 2726.12C2666.59 2726.71 2659.19 2727.12 2652.01 2725.93C2645.48 2724.85 2640.78 2719.04 2640.78 2712.42V2669.85L2684.17 2674.74Z" fill="url(#paint9_linear_74_2)"/>
<path d="M2450.1 2705.43C2450.1 2705.43 2467.9 2733.09 2467.52 2771.06C2467.43 2780 2459.94 2787.13 2451 2787.13H2306.6C2299.84 2787.13 2297.09 2778.44 2302.63 2774.56C2329.95 2755.37 2383.66 2719.53 2422.51 2705.44H2450.1V2705.43Z" fill="#00303A" stroke="black" stroke-miterlimit="10"/>
<path d="M2464.97 2657.81L2453.75 2712.27C2452.5 2718.36 2446.54 2722.46 2440.47 2721.1C2436.78 2720.28 2432.43 2718.7 2427.78 2715.79C2423.36 2713.03 2421.12 2707.77 2422.02 2702.63L2433.62 2636.66L2464.97 2657.81Z" fill="url(#paint10_linear_74_2)"/>
<path d="M2663.57 1900.66C2663.57 1900.66 2702.57 1935.04 2709.91 1976.41C2717.25 2017.78 2689.12 2690.14 2689.12 2690.14C2689.12 2690.14 2650.12 2696.63 2630.02 2684.45C2630.02 2684.45 2606.18 2248.09 2588.05 2147.26C2588.05 2147.26 2493 2599.27 2466.66 2680.95C2466.66 2680.95 2429.09 2685.52 2416.97 2678.37C2416.97 2678.37 2441.87 2092.44 2473.15 1988.26L2663.57 1900.66Z" fill="#00303A" stroke="black" stroke-miterlimit="10"/>
<path d="M2589.18 2132.75C2588.85 2132.75 2588.53 2132.71 2588.19 2132.63C2586.1 2132.08 2584.85 2129.95 2585.4 2127.85L2601.97 2064.31C2602.22 2063.36 2602.81 2062.54 2603.64 2062.01L2639.43 2039.05C2641.23 2037.89 2643.66 2038.4 2644.84 2040.23C2646 2042.05 2645.47 2044.47 2643.66 2045.64L2609.15 2067.78L2592.97 2129.84C2592.51 2131.59 2590.91 2132.75 2589.18 2132.75Z" fill="#666694"/>
<path d="M2278.7 1512.15C2442.88 1498.52 2485.79 1532.5 2485.79 1532.5L2406.89 1657.06C2406.89 1657.06 2245.57 1653.87 2129.97 1564.78C2151.6 1541.48 2166.63 1515.73 2176.26 1495.69C2206.08 1508.07 2240.41 1515.33 2278.7 1512.15Z" fill="#2B4284" stroke="black" stroke-miterlimit="10"/>
<path d="M2021.6 1271.16C2021.82 1265.9 2028.95 1264.47 2031.19 1269.24L2052.14 1313.94C2056.19 1322.58 2057.48 1332.25 2055.86 1341.65L2048.51 1367.67C2046.31 1380.36 2049.63 1393.36 2057.67 1403.42C2076.92 1427.48 2117.91 1471.44 2176.28 1495.69C2166.64 1515.74 2151.62 1541.49 2129.99 1564.78C2087.58 1532.09 2051.31 1487.85 2031.44 1427.94C2021.92 1425.02 2015.56 1416.05 2015.94 1406.1L2021.6 1271.16Z" fill="url(#paint11_linear_74_2)"/>
<path d="M2224.66 1584.37C2282.46 1522.09 2392.55 1493.95 2456.29 1482.4C2484.21 1477.34 2511.74 1492.87 2521.63 1519.47C2550.31 1596.58 2628.33 1797.18 2643.45 1831.66C2655.86 1859.94 2668.81 1887.57 2677.04 1904.84C2681.96 1915.16 2677.66 1927.5 2667.36 1932.47C2613.73 1958.32 2517.24 1987.56 2478.12 1998.97C2469.52 2001.48 2460.95 1995.02 2460.95 1986.06C2460.95 1978.46 2458.88 1971 2454.97 1964.48L2306.81 1717.59C2214.46 1819.98 2133.59 1829.34 2071.47 1806.93C2081.92 1774.65 2088.75 1742.3 2092.03 1709.9C2183.81 1694.17 2224.66 1584.37 2224.66 1584.37Z" fill="#2B4284" stroke="black" stroke-miterlimit="10"/>
<path d="M1914.5 1674.6L1944.5 1657.06C1998.12 1693.89 2055.34 1716.18 2092.03 1709.89C2088.75 1742.29 2081.92 1774.64 2071.47 1806.92C1989.63 1777.4 1914.5 1674.6 1914.5 1674.6Z" fill="url(#paint12_linear_74_2)"/>
<path d="M1772.01 1680.91C1790.67 1670.76 1846.03 1662.02 1846.03 1662.02C1846.03 1662.02 1909.67 1624.79 1927.99 1617.46C1943.21 1611.37 1949.75 1634.13 1951.54 1642.02C1951.9 1643.63 1952.07 1644.62 1952.07 1644.62L1949.72 1659.75L1885.43 1688.32C1871.67 1694.44 1856.48 1696.64 1841.55 1694.68L1772.91 1685.7C1771.81 1685.55 1770.92 1684.72 1770.72 1683.62C1770.5 1682.54 1771.03 1681.44 1772.01 1680.91Z" fill="url(#paint13_linear_74_2)"/>
<path d="M2368.62 1368.02L2417.85 1488.16C2417.85 1488.16 2361.28 1527.32 2315.77 1523.59L2291.2 1415.56L2368.62 1368.02Z" fill="url(#paint14_linear_74_2)"/>
<path d="M2285.45 1286.11C2284.32 1287.71 2249.83 1412.31 2249.83 1412.31L2321.39 1430.49L2371.62 1317.25C2371.63 1317.25 2304.33 1259.37 2285.45 1286.11Z" fill="url(#paint15_linear_74_2)"/>
<path d="M2344.68 1334.46L2322.9 1396.14C2322.62 1396.93 2322.25 1397.66 2321.76 1398.35C2318.8 1402.55 2307.58 1416.25 2294.26 1403.91C2282.18 1392.71 2270.98 1382.67 2260.65 1380.85C2256.01 1380.03 2251.51 1382.86 2250.26 1387.41C2247.13 1398.73 2240.55 1424.37 2238.23 1447.52C2237.76 1452.22 2241 1456.46 2245.64 1457.34C2259.62 1459.99 2289.25 1464.77 2313.99 1463.02C2317.34 1462.78 2320.29 1460.77 2321.69 1457.72C2328.51 1442.82 2349.4 1397.62 2357.17 1385.92C2364.46 1374.94 2382.34 1375.25 2389.84 1375.92C2392.3 1376.14 2394.72 1375.35 2396.57 1373.72C2403.13 1367.97 2415.61 1353.29 2398.05 1335.72C2394.38 1332.04 2394.47 1326.11 2398.26 1322.55C2405.8 1315.46 2413.87 1302.88 2401.3 1287.29C2388.53 1271.44 2371.67 1273.96 2361.34 1277.73C2357.16 1279.25 2352.61 1277.49 2350.34 1273.67C2349.05 1271.49 2346.79 1269.85 2342.88 1270.18C2337.61 1270.63 2333.18 1266.24 2333.28 1260.95C2333.46 1250.79 2329.83 1237.96 2312.21 1232.48C2280.95 1222.75 2261.45 1252.95 2259.52 1275.49C2257.59 1298.03 2292.08 1306.65 2312.36 1305.13C2327.78 1303.97 2339.23 1319.26 2343.83 1326.65C2345.31 1328.99 2345.6 1331.86 2344.68 1334.46Z" fill="#00303A" stroke="black" stroke-miterlimit="10"/>
<path d="M2349.02 1408.3C2349.02 1408.3 2354.07 1369.18 2370.34 1367.26C2386.61 1365.34 2402.46 1378.72 2386.27 1400.68C2366.15 1427.99 2349.02 1408.3 2349.02 1408.3Z" fill="url(#paint16_linear_74_2)"/>
<path d="M1665.79 1704.72C1888.08 1704.72 2068.29 1524.51 2068.29 1302.22C2068.29 1079.93 1888.08 899.72 1665.79 899.72C1443.5 899.72 1263.29 1079.93 1263.29 1302.22C1263.29 1524.51 1443.5 1704.72 1665.79 1704.72Z" fill="url(#paint17_linear_74_2)"/>
<path d="M1940.91 1577.37C2092.87 1425.41 2092.87 1179.04 1940.91 1027.08C1788.96 875.12 1542.58 875.12 1390.62 1027.08C1238.66 1179.04 1238.66 1425.41 1390.62 1577.37C1542.58 1729.33 1788.96 1729.33 1940.91 1577.37Z" fill="#EF4193" stroke="black" stroke-miterlimit="10"/>
<path opacity="0.78" d="M1350.75 1136.47C1349.62 1136.43 1348.48 1136.13 1347.42 1135.55C1343.8 1133.56 1342.49 1129.01 1344.48 1125.4C1411.76 1003.37 1540 930.72 1679.15 935.79C1701.36 936.6 1723.52 939.41 1745.03 944.15C1749.06 945.03 1751.61 949.02 1750.72 953.06C1749.83 957.09 1745.85 959.68 1741.81 958.75C1721.18 954.21 1699.91 951.51 1678.6 950.73C1545.12 945.86 1422.11 1015.56 1357.57 1132.61C1356.17 1135.16 1353.49 1136.57 1350.75 1136.47Z" fill="white"/>
<path opacity="0.78" d="M1906.82 1543.89C2035.43 1415.27 2035.43 1206.75 1906.82 1078.13C1778.2 949.519 1569.68 949.519 1441.07 1078.13C1312.45 1206.75 1312.45 1415.27 1441.07 1543.89C1569.68 1672.5 1778.2 1672.5 1906.82 1543.89Z" fill="white"/>
<path d="M1632.74 1554.5L1634.05 1518.69C1596.78 1515.83 1560.18 1505.68 1534.37 1493.24C1525.15 1488.8 1520.77 1478.12 1523.82 1468.35L1534.13 1435.33C1537.91 1423.22 1551.45 1417.37 1562.97 1422.7C1588.58 1434.55 1620.39 1444.35 1655.02 1445.61C1690.97 1446.92 1718.23 1435.71 1719.14 1410.73C1719.96 1388.18 1699.73 1374.02 1650.25 1358.8C1579.67 1336.7 1529.61 1303.75 1531.9 1240.99C1533.97 1184.32 1576.98 1142.56 1649.31 1133.61L1650.62 1097.8C1651.04 1086.28 1660.72 1077.28 1672.24 1077.7L1693.28 1078.47C1704.8 1078.89 1713.8 1088.57 1713.38 1100.09L1712.21 1132.24C1746.7 1134.88 1771.63 1141.7 1791.32 1149.44C1801.41 1153.4 1806.6 1164.62 1803.38 1174.98L1793.89 1205.52C1790.23 1217.3 1777.28 1223.35 1765.91 1218.57C1747.79 1210.95 1722.08 1202.77 1688.32 1201.54C1645.66 1199.98 1632.83 1217.21 1632.26 1233.06C1631.55 1252.56 1656.65 1266.9 1711.48 1285.98C1789.83 1312.63 1821.54 1346.74 1819.38 1405.85C1817.4 1460.08 1775.41 1507.37 1696.96 1516.71L1695.5 1556.78C1695.08 1568.3 1685.4 1577.3 1673.88 1576.88L1652.84 1576.11C1641.32 1575.71 1632.32 1566.02 1632.74 1554.5Z" fill="#D13981" stroke="black" stroke-miterlimit="10"/>
</g>
<defs>
<linearGradient id="paint0_linear_74_2" x1="1075.56" y1="962.966" x2="101.772" y2="2208.85" gradientUnits="userSpaceOnUse">
<stop stop-color="#FEBBBA"/>
<stop offset="1" stop-color="#FEBBBA"/>
</linearGradient>
<linearGradient id="paint1_linear_74_2" x1="1187.49" y1="1288.53" x2="639.022" y2="1990.25" gradientUnits="userSpaceOnUse">
<stop stop-color="#FEBBBA"/>
<stop offset="1" stop-color="#C0423C"/>
</linearGradient>
<linearGradient id="paint2_linear_74_2" x1="410.864" y1="2635.03" x2="463.341" y2="2635.03" gradientUnits="userSpaceOnUse">
<stop stop-color="#FEBBBA"/>
<stop offset="1" stop-color="#FF928E"/>
</linearGradient>
<linearGradient id="paint3_linear_74_2" x1="221.732" y1="2632.34" x2="267.042" y2="2632.34" gradientUnits="userSpaceOnUse">
<stop stop-color="#FEBBBA"/>
<stop offset="1" stop-color="#FF928E"/>
</linearGradient>
<linearGradient id="paint4_linear_74_2" x1="376.43" y1="1247.46" x2="324.683" y2="1481.45" gradientUnits="userSpaceOnUse">
<stop stop-color="#FEBBBA"/>
<stop offset="1" stop-color="#FEBBBA"/>
</linearGradient>
<linearGradient id="paint5_linear_74_2" x1="-502.598" y1="912.943" x2="-188.486" y2="1021.59" gradientUnits="userSpaceOnUse">
<stop stop-color="#FEBBBA"/>
<stop offset="1" stop-color="#FEBBBA"/>
</linearGradient>
<linearGradient id="paint6_linear_74_2" x1="-514.197" y1="946.468" x2="-200.085" y2="1055.11" gradientUnits="userSpaceOnUse">
<stop stop-color="#FEBBBA"/>
<stop offset="1" stop-color="#FEBBBA"/>
</linearGradient>
<linearGradient id="paint7_linear_74_2" x1="49.2867" y1="1677.59" x2="383.79" y2="1677.59" gradientUnits="userSpaceOnUse">
<stop stop-color="#FEBBBA"/>
<stop offset="1" stop-color="#FEBBBA"/>
</linearGradient>
<linearGradient id="paint8_linear_74_2" x1="358.954" y1="1642.51" x2="463.166" y2="1642.51" gradientUnits="userSpaceOnUse">
<stop stop-color="#FEBBBA"/>
<stop offset="1" stop-color="#FEBBBA"/>
</linearGradient>
<linearGradient id="paint9_linear_74_2" x1="2684.17" y1="2698.28" x2="2640.79" y2="2698.28" gradientUnits="userSpaceOnUse">
<stop stop-color="#FEBBBA"/>
<stop offset="1" stop-color="#FF928E"/>
</linearGradient>
<linearGradient id="paint10_linear_74_2" x1="2464.97" y1="2679.01" x2="2421.82" y2="2679.01" gradientUnits="userSpaceOnUse">
<stop stop-color="#FEBBBA"/>
<stop offset="1" stop-color="#FF928E"/>
</linearGradient>
<linearGradient id="paint11_linear_74_2" x1="2176.27" y1="1415.56" x2="2015.91" y2="1415.56" gradientUnits="userSpaceOnUse">
<stop stop-color="#FEBBBA"/>
<stop offset="1" stop-color="#FF928E"/>
</linearGradient>
<linearGradient id="paint12_linear_74_2" x1="24924.8" y1="17636.4" x2="25123.9" y2="17774.8" gradientUnits="userSpaceOnUse">
<stop stop-color="#FEBBBA"/>
<stop offset="1" stop-color="#FF928E"/>
</linearGradient>
<linearGradient id="paint13_linear_74_2" x1="24902.9" y1="17667.9" x2="25102.1" y2="17806.2" gradientUnits="userSpaceOnUse">
<stop stop-color="#FEBBBA"/>
<stop offset="1" stop-color="#FF928E"/>
</linearGradient>
<linearGradient id="paint14_linear_74_2" x1="2202.97" y1="1190" x2="2538.56" y2="1806.6" gradientUnits="userSpaceOnUse">
<stop stop-color="#FEBBBA"/>
<stop offset="1" stop-color="#FF928E"/>
</linearGradient>
<linearGradient id="paint15_linear_74_2" x1="2308.74" y1="1303.6" x2="2316.76" y2="1549.43" gradientUnits="userSpaceOnUse">
<stop stop-color="#FEBBBA"/>
<stop offset="1" stop-color="#FF928E"/>
</linearGradient>
<linearGradient id="paint16_linear_74_2" x1="2396.6" y1="1555.81" x2="2369.79" y2="1387.5" gradientUnits="userSpaceOnUse">
<stop stop-color="#FEBBBA"/>
<stop offset="1" stop-color="#FF928E"/>
</linearGradient>
<linearGradient id="paint17_linear_74_2" x1="1634.93" y1="1354.37" x2="1148.55" y2="2176.01" gradientUnits="userSpaceOnUse">
<stop stop-color="#D13981" stop-opacity="0.59"/>
<stop offset="0.655" stop-color="#D13981" stop-opacity="0.85855"/>
<stop offset="1" stop-color="#D13981"/>
</linearGradient>
<clipPath id="clip0_74_2">
<rect width="2711.63" height="2791.05" fill="white"/>
</clipPath>
</defs>
</svg>
