<svg width="152" height="146" viewBox="0 0 152 146" fill="none" xmlns="http://www.w3.org/2000/svg">
<path fill-rule="evenodd" clip-rule="evenodd" d="M122.465 40.473C117.622 40.473 34.6014 40.473 29.3132 40.473L0 70.4932L76.2058 146L151.778 70.4932L122.465 40.473ZM41.6417 73.8052L63.1317 122.026L14.4516 73.8052H41.6417ZM50.9896 73.8052H100.786L76.0567 130.078L50.9896 73.8052ZM110.136 73.8052H137.364L88.8306 122.268L110.136 73.8052ZM117.957 47.1273L137.474 67.1205H110.136L101.42 47.1273H117.957ZM92.0721 47.1273L100.786 67.1205H50.9524L59.7057 47.1273H92.0721ZM33.7812 47.1273H50.3559L41.6417 67.1205H14.2652L33.7812 47.1273Z" fill="#324D8C"/>
<path fill-rule="evenodd" clip-rule="evenodd" d="M75.8703 0C78.5899 0 80.8248 1.79282 80.8248 4.01142V19.902C80.8248 22.0902 78.5899 23.9134 75.8703 23.9134C73.1507 23.9134 70.9531 22.0902 70.9531 19.902V4.01142C70.9531 1.79282 73.1507 0 75.8703 0Z" fill="#EF4193"/>
<path fill-rule="evenodd" clip-rule="evenodd" d="M118.517 8.2342C120.863 9.32753 121.682 11.7894 120.342 13.7039L110.584 27.4686C109.243 29.3831 106.226 30.0506 103.879 28.9269C101.532 27.8336 100.714 25.3717 102.054 23.4572L111.812 9.69248C113.152 7.77801 116.17 7.11046 118.517 8.2342Z" fill="#EF4193"/>
<path fill-rule="evenodd" clip-rule="evenodd" d="M33.2239 8.2342C30.8771 9.32753 30.0588 11.7894 31.4363 13.7039L41.157 27.4686C42.4973 29.3831 45.5523 30.0506 47.8991 28.9269C50.2459 27.8336 51.0642 25.3717 49.6867 23.4572L39.9641 9.69248C38.5866 7.77801 35.5706 7.11046 33.2239 8.2342Z" fill="#EF4193"/>
</svg>
