<svg width="148" height="136" viewBox="0 0 148 136" fill="none" xmlns="http://www.w3.org/2000/svg">
<path d="M37.3661 8.69674C45.5847 4.80752 54.1087 1.79651 63.3668 0.685304C83.871 -1.7701 102.589 2.30432 118.954 14.0138C138.718 28.1548 148.47 47.0692 147.983 69.9864C147.287 102.653 120.722 130.057 85.5472 135.159C47.014 140.751 10.1765 117.894 1.87347 83.1297C-1.90123 67.3398 -0.00413393 52.0935 7.85713 37.5702C8.57179 36.2499 8.69524 34.6846 9.89067 33.5794C10.7872 34.2664 11.7163 34.9296 12.5804 35.6525C15.582 38.1676 18.1223 41.1308 21.4032 43.3712C21.6956 43.9029 21.9879 44.4346 22.2803 44.9603C15.7054 56.9566 14.6334 69.4606 18.5446 82.3112C27.0035 110.073 57.5196 126.21 88.3214 119.322C117.778 112.732 136.671 84.8084 130.408 57.1298C125.341 34.7324 104.694 17.4729 79.9404 15.2744C69.3439 14.3304 59.0009 15.5372 49.4179 20.2569C48.7552 20.3584 48.1445 20.3345 47.6248 19.8506C44.2918 16.75 40.9524 13.6434 37.6 10.5607C36.9568 9.97523 36.9373 9.37183 37.3661 8.69674Z" fill="#324D8C"/>
<path d="M27.4323 4.35945C27.6402 4.56257 27.8481 4.76569 28.0625 4.96882C34.5075 11.409 41.2383 17.5983 48.1315 23.6323C48.7487 24.2058 49.3594 24.7794 49.9766 25.3529C50.4379 26.1833 50.8927 27.0137 51.354 27.8501C51.3735 31.5721 51.393 35.294 51.406 39.016C51.25 40.0973 50.8797 41.2085 51.9387 42.1166L51.9777 42.1584C52.5169 43.1561 53.4135 43.8312 54.388 44.4406C54.5635 44.7512 54.7324 45.0559 54.9078 45.3666C51.9387 44.8169 50.1456 43.3293 50.1845 40.3661C50.2105 38.2752 50.0741 36.1782 50.204 34.0992C50.4574 30.1502 48.8722 26.9122 46.2474 23.8892C45.2144 22.7003 43.1354 23.1006 42.5896 21.6608C40.7185 16.75 34.7219 15.2564 32.1816 10.9012C31.6293 9.95133 29.4529 10.7101 29.2905 9.35988C28.8747 5.79924 24.4243 5.65586 23.0794 2.89576C22.813 2.34613 22.0919 2.83602 21.6176 3.39162C19.9284 5.38701 19.3307 7.55566 19.5711 10.0828C19.779 12.2036 19.8569 14.4081 18.4926 16.3497C18.4081 15.5372 18.3302 14.7307 18.2457 13.9182C18.3497 10.5607 18.4536 7.19721 18.5576 3.83969C19.818 2.30431 21.5137 1.66507 23.5732 1.78455C23.9305 1.88612 24.2878 1.98768 24.6452 2.09521C25.5677 2.83602 26.4968 3.59474 27.4323 4.35945Z" fill="#EF4193"/>
<path d="M7.66222 27.2886C6.48628 26.3028 5.35581 25.2693 4.13439 24.3373C1.57461 22.3957 1.23677 20.1553 2.92597 17.5924C3.12737 17.5745 3.2833 17.4849 3.38725 17.3235C3.60814 17.1861 3.82904 17.0428 4.04993 16.9054C8.78618 16.8576 13.5289 16.8098 18.2652 16.7679C18.1482 18.5184 16.6799 18.0405 15.6144 18.0584C12.3985 18.1062 9.1825 18.136 5.97302 18.0584C4.18637 18.0166 3.40024 19.1397 3.01692 20.3047C2.69208 21.2964 3.87452 21.7564 4.70612 22.4076C6.24589 23.6144 8.13 24.9407 7.66222 27.2886Z" fill="#EF4193"/>
<path d="M18.2717 16.7679C18.2847 16.5947 18.3561 16.4513 18.4926 16.3318C19.8569 14.3902 19.779 12.1917 19.5711 10.0649C19.3242 7.53777 19.9219 5.36912 21.6176 3.37373C22.0919 2.81812 22.813 2.32824 23.0794 2.87786C24.4243 5.63796 28.8747 5.78134 29.2905 9.34198C29.4464 10.6862 31.6228 9.92746 32.1816 10.8833C34.7219 15.2385 40.7185 16.7321 42.5896 21.6429C43.1354 23.0827 45.2144 22.6824 46.2474 23.8713C48.8722 26.8943 50.4574 30.1383 50.204 34.0813C50.0676 36.1663 50.2105 38.2573 50.1845 40.3482C50.152 43.3174 51.9387 44.799 54.9078 45.3487L54.9143 45.3666C54.7714 45.958 54.6284 46.5734 55.1222 47.0633C57.9678 49.8473 60.716 52.7029 63.8995 55.2002C67.2519 57.8348 70.3055 60.798 73.411 63.6955C74.6324 64.8366 74.5934 66.2107 73.437 67.4414C72.274 68.6721 70.9422 68.3196 69.6298 67.6445C68.3824 66.9993 67.5573 65.9359 66.5892 65.0099C63.9515 62.4768 61.2488 60.0094 58.6565 57.4345C56.7334 55.5228 54.2451 54.0292 52.5624 51.8128C51.7568 50.7553 50.8082 50.0444 49.2945 50.5821L49.4569 50.5462L49.2945 50.5522C49.3464 50.1221 49.132 49.913 48.6643 49.919L48.6578 49.9309C48.8916 48.9213 48.4628 48.527 47.3649 48.754L47.3779 48.748C47.3844 48.3179 47.157 48.1207 46.6892 48.1805L46.6307 48.1625C46.7217 47.8997 46.8126 47.6308 46.9036 47.368C46.8776 46.5674 46.9231 45.5876 45.7082 45.6295C40.699 45.8206 35.6314 44.8648 30.6743 46.1671C29.9726 46.2209 29.271 46.2687 28.5758 46.3225L28.6732 46.197C28.6732 46.197 28.6083 46.3404 28.6083 46.3344C28.3159 44.9424 27.5883 43.9806 25.8666 44.0284L26.0485 43.891C26.0485 43.891 25.8471 44.0045 25.8471 43.9985C25.938 43.5385 25.7301 43.3533 25.2364 43.4369L25.2039 43.4011C25.2819 42.947 25.0805 42.7559 24.5867 42.8395L24.6322 42.5766C24.6322 42.5766 24.5672 42.8395 24.5737 42.8335C24.2553 41.1488 23.7551 39.6373 21.3642 39.8225L21.3317 39.7807C21.3252 37.1281 17.9144 34.0156 14.8608 33.8722C14.8608 33.8722 14.8088 33.8184 14.8153 33.8184C14.7828 31.357 12.405 29.1466 9.68926 29.051L9.79971 28.9315L9.66327 29.0271C9.91665 27.5992 9.30594 26.9899 7.72719 27.2826L7.68171 27.2706C8.14299 24.9228 6.26539 23.5965 4.73211 22.3897C3.90051 21.7325 2.71807 21.2785 3.04292 20.2868C3.41974 19.1218 4.21236 17.9986 5.99901 18.0405C9.20849 18.1181 12.4245 18.0883 15.6404 18.0405C16.6864 18.0405 18.1547 18.5124 18.2717 16.7679Z" fill="#EF4193"/>
<path d="M14.8478 33.89C17.9014 34.0334 21.3122 37.146 21.3187 39.7986C18.8564 38.1079 16.7449 36.1005 14.8478 33.89Z" fill="#EF4193"/>
<path d="M9.66977 29.0749C12.392 29.1704 14.7634 31.3809 14.7958 33.8423C12.8143 32.4981 11.0536 30.9567 9.66977 29.0749Z" fill="#EF4193"/>
<path d="M21.3512 39.8404C23.7421 39.6492 24.2489 41.1667 24.5607 42.8514C24.2489 42.7499 23.9435 42.6423 23.6381 42.5348C22.8715 41.6327 22.1114 40.7366 21.3512 39.8404Z" fill="#EF4193"/>
<path d="M7.7142 27.3005C9.28645 27.0078 9.90366 27.6171 9.65028 29.045C8.74071 28.7104 8.11051 28.113 7.7142 27.3005Z" fill="#EF4193"/>
<path d="M54.7324 40.9038C54.0502 40.6887 53.9787 40.0794 53.7318 39.5895C53.7838 37.2058 53.9203 34.8221 53.8553 32.4383C53.8163 31.0165 54.4335 30.3712 55.8174 29.7977C84.6637 17.8493 118.428 37.3491 119.169 66.4198C119.728 88.387 103.726 106.447 80.1353 109.279C48.9566 113.025 25.3013 88.7753 29.128 62.5723C29.6348 59.1073 30.6548 55.7916 31.8762 52.4938C32.6364 50.4327 33.6694 49.3514 36.2551 49.5724C38.9319 49.8054 41.6541 49.6262 44.3633 49.6322C44.1684 50.2714 43.967 50.9107 43.7721 51.5499C31.7983 68.4151 41.758 92.7661 63.1134 98.8419C87.1455 105.676 110.671 89.0442 109.151 65.9478C108.332 53.5811 101.452 44.2793 89.3025 38.8666C77.53 33.6212 65.8486 34.4218 54.7324 40.9038Z" fill="#324D8C"/>
<path d="M45.6432 47.3381C45.4158 47.3739 45.1949 47.4038 44.9675 47.4396C40.2248 47.2843 35.4755 47.129 30.7328 46.9796C30.7133 46.7108 30.6938 46.4419 30.6743 46.1671C35.6379 44.8647 40.699 45.8206 45.7082 45.6294C46.9166 45.5817 46.8776 46.5674 46.9036 47.368C46.4813 47.356 46.059 47.35 45.6432 47.3381Z" fill="#EF4193"/>
<path d="M30.6678 46.1731C30.6873 46.4419 30.7068 46.7108 30.7263 46.9856C30.2975 47.0334 29.8752 47.0752 29.4464 47.123C29.154 46.8601 28.8617 46.5973 28.5693 46.3284C29.271 46.2747 29.9726 46.2209 30.6678 46.1731Z" fill="#EF4193"/>
<path d="M25.8601 44.0343C27.5818 43.9865 28.3094 44.9484 28.6018 46.3404C27.2049 46.0536 26.4513 45.1216 25.8601 44.0343Z" fill="#EF4193"/>
<path d="M25.2299 43.4429C25.7237 43.3592 25.9316 43.5444 25.8406 44.0044C25.6327 43.8192 25.4313 43.634 25.2299 43.4429Z" fill="#EF4193"/>
<path d="M24.5802 42.8514C25.074 42.7677 25.2819 42.9529 25.1974 43.4129C24.9895 43.2218 24.7816 43.0366 24.5802 42.8514Z" fill="#EF4193"/>
<path d="M49.6063 58.2589C50.4834 57.8228 50.4574 55.6064 52.0167 56.8132C53.3355 57.8348 55.603 58.5995 54.9598 60.9354C54.6219 62.172 53.7773 63.3072 54.0242 64.6693C53.4005 66.4317 53.3096 68.2239 53.7448 70.0341C53.5564 70.4941 53.5759 70.9123 53.9852 71.2708C55.3236 79.5033 63.3278 86.2781 72.3455 86.8038C81.0644 87.3116 88.8867 83.0699 92.5574 75.8411C96.0463 68.9767 94.5195 60.4395 88.8412 55.0567C82.6236 49.1661 74.2101 47.6905 65.7706 51.0122C63.6461 50.7613 63.0094 48.6524 61.2423 47.9474C60.885 46.1492 62.6586 46.1014 63.6721 45.6891C80.4732 38.8666 100.055 50.4327 100.263 67.3039C100.386 77.6692 95.3381 85.358 85.2224 89.779C75.0872 94.2118 65.3938 92.8139 56.7399 86.2661C48.6838 80.1724 45.7406 69.9445 48.9891 60.2483C49.21 59.5971 49.3984 58.928 49.6063 58.2589Z" fill="#324D8C"/>
<path d="M66.2449 67.0171C66.154 66.8319 66.063 66.6467 65.972 66.4556C65.7057 66.2047 65.4393 65.9478 65.1729 65.6968C59.8779 60.6546 54.5829 55.6123 49.288 50.5761C50.7952 50.0444 51.7503 50.7493 52.5559 51.8068C54.2321 54.0172 56.7269 55.5168 58.65 57.4285C61.2423 60.0034 63.945 62.4708 66.5828 65.0038C67.5508 65.9358 68.3759 66.9932 69.6233 67.6385C70.9357 68.3136 72.2675 68.672 73.4305 67.4353C74.5869 66.2047 74.6259 64.8306 73.4045 63.6895C70.3055 60.792 67.2519 57.8288 63.893 55.1941C60.7095 52.6909 57.9613 49.8412 55.1157 47.0572C54.6219 46.5733 54.7649 45.952 54.9078 45.3606C55.2002 45.4621 55.4925 45.5577 55.7849 45.6593C56.2527 46.1014 56.7139 46.5435 57.1817 46.9856C57.8054 47.5352 58.4291 48.0848 59.0528 48.6344C59.2997 49.2319 59.7545 49.6501 60.4107 49.8651L60.4042 49.8353C60.6381 50.0503 60.8655 50.2594 61.0994 50.4745L61.0539 50.4267C61.2943 50.6657 61.5346 50.9047 61.775 51.1436C62.1584 51.5021 62.5417 51.8605 62.925 52.219C63.3928 53.0434 64.0749 53.6707 64.9715 54.1009C65.5952 54.6684 66.2254 55.236 66.8491 55.8035C67.3104 56.6339 68.0121 57.2553 68.8827 57.7093C70.3575 59.0714 71.8323 60.4335 73.3006 61.7957C74.1192 62.9367 74.9443 64.0838 75.7629 65.2249C75.7694 65.6371 75.7759 66.0493 75.7824 66.4556C75.3991 67.2203 75.0222 67.979 74.6389 68.7437C74.444 68.8811 74.2491 69.0245 74.0542 69.1619C72.4625 69.7056 70.8772 69.7414 69.279 69.1798C69.0321 69.0066 68.7917 68.8333 68.5448 68.6541C67.9861 68.1821 67.4338 67.7102 66.8816 67.2322C66.6672 67.1725 66.4528 67.0948 66.2449 67.0171Z" fill="#EF4193"/>
<path d="M48.6513 49.9309C47.9561 49.7815 47.5663 49.3514 47.3584 48.754C48.4564 48.5269 48.8851 48.9212 48.6513 49.9309Z" fill="#EF4193"/>
<path d="M45.6432 47.338C46.059 47.344 46.4813 47.3559 46.8971 47.3619C46.8061 47.6248 46.7152 47.8876 46.6242 48.1565C46.2994 47.8876 45.968 47.6128 45.6432 47.338Z" fill="#EF4193"/>
<path d="M47.3714 48.748C47.144 48.5568 46.9166 48.3716 46.6827 48.1804C47.1505 48.1207 47.3779 48.3178 47.3714 48.748Z" fill="#EF4193"/>
<path d="M49.2815 50.5522C49.0736 50.3431 48.8657 50.128 48.6578 49.9189C49.1255 49.913 49.3334 50.1221 49.2815 50.5522Z" fill="#EF4193"/>
</svg>
